<?xml version="1.0" encoding="UTF-8"?>
<svg width="31px" height="40px" viewBox="0 0 31 40" version="1.1" xmlns="http://www.w3.org/2000/svg" xmlns:xlink="http://www.w3.org/1999/xlink">
    <!-- Generator: Sketch 51.3 (57544) - http://www.bohemiancoding.com/sketch -->
    <title>004-shield</title>
    <desc>Created with Sketch.</desc>
    <defs>
        <linearGradient x1="50%" y1="-2.48949813e-15%" x2="50%" y2="100%" id="linearGradient-1">
            <stop stop-color="#4A6180" offset="0%"></stop>
            <stop stop-color="#243249" offset="100%"></stop>
        </linearGradient>
    </defs>
    <g id="Desktop" stroke="none" stroke-width="1" fill="none" fill-rule="evenodd" opacity="0.800000012">
        <g id="About_HD" transform="translate(-405.000000, -1154.000000)" fill="url(#linearGradient-1)" fill-rule="nonzero">
            <g id="about" transform="translate(-14.000000, 752.000000)">
                <g id="about_add" transform="translate(419.000000, 402.000000)">
                    <g id="004-shield">
                        <path d="M28.3756356,2.865 C28.3315266,2.865 28.2875,2.86958333 28.2442154,2.8785 C23.946016,3.76816667 19.4739362,2.967 15.7400027,0.6385 L14.8700239,0.0985 C14.658383,-0.03275 14.39175,-0.03275 14.180109,0.0985 L13.3101303,0.6385 C9.57586702,2.96608333 5.10378723,3.76625 0.805917553,2.87583333 C0.449005319,2.80216667 0.100585106,3.03491667 0.0277845745,3.39566667 C0.0187978723,3.44025 0.0143457447,3.48566667 0.0144281915,3.53116667 L0.0144281915,24.0245 C0.0132739362,26.6581667 0.706321809,29.2446667 2.02217287,31.5178333 C3.5288883,34.13625 5.82057979,36.20225 8.56581117,37.4171667 L14.2612367,39.9418333 C14.4294282,40.0160833 14.6207048,40.0160833 14.7888963,39.9418333 L20.4863005,37.4171667 C20.8068537,37.2751667 21.1221303,37.1211667 21.429492,36.9565 C21.7513644,36.7838333 21.8737154,36.3801667 21.7028856,36.0548333 C21.5320559,35.7295 21.1326835,35.6058333 20.8108112,35.7785 C20.5320585,35.9278333 20.2472872,36.0669167 19.9566622,36.1958333 L14.5250665,38.6031667 L9.09544947,36.1978333 C6.60473138,35.09475 4.52583511,33.2194167 3.15927926,30.8431667 C1.96182181,28.77375 1.3315984,26.4191667 1.33357713,24.0218333 L1.33357713,4.32775 C5.72139628,5.03608333 10.2149947,4.12941667 13.9974069,1.77241667 L14.5250665,1.44641667 L15.0527261,1.77175 C18.8346436,4.12991667 23.3286543,5.03691667 27.7165559,4.32775 L27.7165559,24.02175 C27.7165559,24.3899167 28.0118803,24.6884167 28.3761303,24.6884167 C28.7403803,24.6884167 29.0357048,24.3899167 29.0357048,24.02175 L29.0357048,3.53108333 C29.0354574,3.16291667 28.7399681,2.86466667 28.3756356,2.865 Z" id="Shape"></path>
                        <path d="M14.4770824,5.00491667 C14.3069122,4.67933333 13.9078697,4.55483333 13.5858324,4.72683333 C13.568766,4.73591667 13.5520293,4.74583333 13.5357872,4.75641667 C10.4933351,6.55783333 6.90393085,7.17225 3.44429787,6.48375 C3.08738564,6.41008333 2.73896543,6.64283333 2.66616489,7.00358333 C2.65726064,7.04775 2.65280851,7.09266667 2.65280851,7.13775 L2.65280851,23.0644167 C2.65404521,25.1514167 3.22729787,27.1973333 4.309,28.9750833 C5.57216755,31.0565833 7.45418085,32.6811667 9.68585106,33.6164167 C10.0219043,33.75875 10.4084149,33.59875 10.549234,33.2590833 C10.6900532,32.9194167 10.5317553,32.52875 10.1957021,32.3864167 C8.21928723,31.5589167 6.55237766,30.12075 5.43357447,28.27775 C4.47941755,26.70975 3.97352394,24.90525 3.97195745,23.0644167 L3.97195745,7.92708333 C7.51007979,8.447 11.1179521,7.73408333 14.2019574,5.90575 C14.5239947,5.73383333 14.6471702,5.3305 14.4770824,5.00491667 Z" id="Shape"></path>
                        <path d="M30.7560399,33.5285833 C30.5088644,33.3115 30.1414814,33.3105 29.893234,33.5264167 L26.7391489,36.7144167 C26.5192633,36.64775 26.2849495,36.64775 26.0650638,36.7144167 L20.2726809,30.85975 C20.0106649,30.604 19.5930718,30.6113333 19.3400426,30.8761667 C19.0931968,31.1345 19.0931968,31.5440833 19.3400426,31.8024167 L25.131766,37.6570833 C24.9364495,38.3569167 25.3395319,39.0843333 26.0319202,39.2816667 C26.1508085,39.3155833 26.2739016,39.3321667 26.3974894,39.3310833 C27.1260718,39.3310833 27.7166383,38.7341667 27.7166383,37.99775 C27.7150718,37.8825 27.6984176,37.7679167 27.6671702,37.6570833 L30.8212553,34.4690833 C31.0601862,34.1911667 31.031,33.7700833 30.7560399,33.5285833 Z" id="Shape"></path>
                        <path d="M24.8850851,14.85975 L22.2467872,12.1930833 C21.9892234,11.9328333 21.5717128,11.9328333 21.3141489,12.1930833 L13.206,20.3884167 L11.0340213,18.1930833 C10.7764574,17.9328333 10.3589468,17.9328333 10.101383,18.1930833 L7.46308511,20.85975 C7.20560372,21.1200833 7.20560372,21.5420833 7.46308511,21.8024167 L12.7396809,27.13575 C12.8633511,27.26075 13.0310479,27.3310833 13.206,27.3310833 C13.3809521,27.3310833 13.5486489,27.26075 13.6723191,27.13575 L24.8850851,15.8024167 C25.1425665,15.5420833 25.1425665,15.1200833 24.8850851,14.85975 Z M13.206,25.72175 L8.86468085,21.3310833 L10.5677021,19.6070833 L12.7442979,21.8024167 C13.0018617,22.0626667 13.4193723,22.0626667 13.6769362,21.8024167 L21.7804681,13.6070833 L23.488766,15.3310833 L13.206,25.72175 Z" id="Shape"></path>
                    </g>
                </g>
            </g>
        </g>
    </g>
</svg>