<?xml version="1.0" encoding="UTF-8"?>
<svg width="24px" height="30px" viewBox="0 0 24 30" version="1.1" xmlns="http://www.w3.org/2000/svg" xmlns:xlink="http://www.w3.org/1999/xlink">
    <!-- Generator: Sketch 51.3 (57544) - http://www.bohemiancoding.com/sketch -->
    <title>004-shield</title>
    <desc>Created with Sketch.</desc>
    <defs>
        <linearGradient x1="50%" y1="-2.48949813e-15%" x2="50%" y2="100%" id="linearGradient-1">
            <stop stop-color="#4A6180" offset="0%"></stop>
            <stop stop-color="#243249" offset="100%"></stop>
        </linearGradient>
    </defs>
    <g id="Mobile" stroke="none" stroke-width="1" fill="none" fill-rule="evenodd" opacity="0.800000012">
        <g id="About_Mobile" transform="translate(-50.000000, -1009.000000)" fill="url(#linearGradient-1)" fill-rule="nonzero">
            <g id="about_add" transform="translate(49.000000, 1005.000000)">
                <g id="Group-5">
                    <g id="Group-2" transform="translate(1.000000, 0.000000)">
                        <g id="004-shield" transform="translate(0.000000, 4.000000)">
                            <path d="M21.2817267,2.14875 C21.2486449,2.14875 21.215625,2.1521875 21.1831616,2.158875 C17.959512,2.826125 14.6054521,2.22525 11.805002,0.478875 L11.152518,0.073875 C10.9937872,-0.0245625 10.7938125,-0.0245625 10.6350818,0.073875 L9.98259774,0.478875 C7.18190027,2.2245625 3.82784043,2.8246875 0.604438165,2.156875 C0.336753989,2.101625 0.0754388298,2.2761875 0.0208384309,2.54675 C0.0140984043,2.5801875 0.0107593085,2.61425 0.0108211436,2.648375 L0.0108211436,18.018375 C0.00995545213,19.993625 0.529741356,21.9335 1.51662965,23.638375 C2.64666622,25.6021875 4.36543484,27.1516875 6.42435838,28.062875 L10.6959275,29.956375 C10.8220711,30.0120625 10.9655286,30.0120625 11.0916722,29.956375 L15.3647254,28.062875 C15.6051403,27.956375 15.8415977,27.840875 16.072119,27.717375 C16.3135233,27.587875 16.4052866,27.285125 16.2771642,27.041125 C16.1490419,26.797125 15.8495126,26.704375 15.6081084,26.833875 C15.3990439,26.945875 15.1854654,27.0501875 14.9674967,27.146875 L10.8937999,28.952375 L6.8215871,27.148375 C4.95354854,26.3210625 3.39437633,24.9145625 2.36945944,23.132375 C1.47136636,21.5803125 0.998698803,19.814375 1.00018285,18.016375 L1.00018285,3.2458125 C4.29104721,3.7770625 7.66124601,3.0970625 10.4980552,1.3293125 L10.8937999,1.0848125 L11.2895445,1.3288125 C14.1259827,3.0974375 17.4964907,3.7776875 20.7874169,3.2458125 L20.7874169,18.0163125 C20.7874169,18.2924375 21.0089102,18.5163125 21.2820977,18.5163125 C21.5552852,18.5163125 21.7767786,18.2924375 21.7767786,18.0163125 L21.7767786,2.6483125 C21.7765931,2.3721875 21.5549761,2.1485 21.2817267,2.14875 Z" id="Shape"></path>
                            <path d="M10.8578118,3.7536875 C10.7301842,3.5095 10.4309023,3.416125 10.1893743,3.545125 C10.1765745,3.5519375 10.1640219,3.559375 10.1518404,3.5673125 C7.87000133,4.918375 5.17794814,5.3791875 2.5832234,4.8628125 C2.31553923,4.8075625 2.05422407,4.982125 1.99962367,5.2526875 C1.99294548,5.2858125 1.98960638,5.3195 1.98960638,5.3533125 L1.98960638,17.2983125 C1.99053391,18.8635625 2.4204734,20.398 3.23175,21.7313125 C4.17912566,23.2924375 5.59063564,24.510875 7.2643883,25.2123125 C7.51642819,25.3190625 7.80631117,25.1990625 7.91192553,24.9443125 C8.01753989,24.6895625 7.89881649,24.3965625 7.6467766,24.2898125 C6.16446543,23.6691875 4.91428324,22.5905625 4.07518085,21.2083125 C3.35956316,20.0323125 2.98014295,18.6789375 2.97896809,17.2983125 L2.97896809,5.9453125 C5.63255984,6.33525 8.3384641,5.8005625 10.6514681,4.4293125 C10.892996,4.300375 10.9853777,3.997875 10.8578118,3.7536875 Z" id="Shape"></path>
                            <path d="M23.0670299,25.1464375 C22.8816483,24.983625 22.606111,24.982875 22.4199255,25.1448125 L20.0543617,27.5358125 C19.8894475,27.4858125 19.7137121,27.4858125 19.5487979,27.5358125 L15.2045106,23.1448125 C15.0079987,22.953 14.6948039,22.9585 14.5050319,23.157125 C14.3198976,23.350875 14.3198976,23.6580625 14.5050319,23.8518125 L18.8488245,28.2428125 C18.7023371,28.7676875 19.0046489,29.31325 19.5239402,29.46125 C19.6131064,29.4866875 19.7054262,29.499125 19.798117,29.4983125 C20.3445539,29.4983125 20.7874787,29.050625 20.7874787,28.4983125 C20.7863039,28.411875 20.7738132,28.3259375 20.7503777,28.2428125 L23.1159415,25.8518125 C23.2951396,25.643375 23.27325,25.3275625 23.0670299,25.1464375 Z" id="Shape"></path>
                            <path d="M18.6638138,11.1448125 L16.6850904,9.1448125 C16.4919176,8.949625 16.1787846,8.949625 15.9856117,9.1448125 L9.9045,15.2913125 L8.27551596,13.6448125 C8.08234309,13.449625 7.76921011,13.449625 7.57603723,13.6448125 L5.59731383,15.6448125 C5.40420279,15.8400625 5.40420279,16.1565625 5.59731383,16.3518125 L9.55476064,20.3518125 C9.6475133,20.4455625 9.7732859,20.4983125 9.9045,20.4983125 C10.0357141,20.4983125 10.1614867,20.4455625 10.2542394,20.3518125 L18.6638138,11.8518125 C18.8569249,11.6565625 18.8569249,11.3400625 18.6638138,11.1448125 Z M9.9045,19.2913125 L6.64851064,15.9983125 L7.9257766,14.7053125 L9.5582234,16.3518125 C9.75139628,16.547 10.0645293,16.547 10.2577021,16.3518125 L16.3353511,10.2053125 L17.6165745,11.4983125 L9.9045,19.2913125 Z" id="Shape"></path>
                        </g>
                    </g>
                </g>
            </g>
        </g>
    </g>
</svg>