<?xml version="1.0" encoding="UTF-8"?>
<svg width="38px" height="40px" viewBox="0 0 38 40" version="1.1" xmlns="http://www.w3.org/2000/svg" xmlns:xlink="http://www.w3.org/1999/xlink">
    <!-- Generator: Sketch 51.3 (57544) - http://www.bohemiancoding.com/sketch -->
    <title>002-heart-rate</title>
    <desc>Created with Sketch.</desc>
    <defs>
        <linearGradient x1="50%" y1="-2.48949813e-15%" x2="50%" y2="100%" id="linearGradient-1">
            <stop stop-color="#4A6180" offset="0%"></stop>
            <stop stop-color="#243249" offset="100%"></stop>
        </linearGradient>
    </defs>
    <g id="Desktop" stroke="none" stroke-width="1" fill="none" fill-rule="evenodd">
        <g id="About_HD" transform="translate(-982.000000, -1154.000000)" fill="url(#linearGradient-1)" fill-rule="nonzero">
            <g id="about" transform="translate(-14.000000, 752.000000)">
                <g id="about_add" transform="translate(419.000000, 402.000000)">
                    <g id="Group-5" transform="translate(289.000000, 0.000000)">
                        <g id="Group-6" transform="translate(288.464891, 0.000000)">
                            <g id="002-heart-rate">
                                <path d="M34.1838249,12.023368 L31.9709435,12.023368 C34.0532011,8.02320166 32.537637,3.07168399 28.5858167,0.963991684 C25.4506823,-0.708274428 21.6051684,-0.11975052 19.0985068,2.4160499 L18.4103908,3.11193347 L17.7222747,2.4160499 C14.5758854,-0.79027027 9.45748818,-0.807484407 6.29006761,2.37746362 C3.76122465,4.92033264 3.17621098,8.83966736 4.84992021,12.0252807 L2.6369567,12.0252807 C2.27400341,12.0252807 1.97973028,12.3231601 1.97973028,12.6905613 C1.97973028,13.0579626 2.27400341,13.355842 2.6369567,13.355842 L2.6369567,13.3538462 L5.71869139,13.3538462 C5.89408869,13.5744699 6.08057668,13.7858628 6.27733384,13.9871933 L16.8507925,24.6775884 C17.7131557,25.5468607 19.1076259,25.5468607 19.9699891,24.6775884 L30.5434477,13.9871933 C30.7402049,13.7858628 30.9266929,13.5744699 31.1020902,13.3538462 L34.1838249,13.3538462 C34.5467782,13.3538462 34.8410513,13.0559667 34.8410513,12.6885655 C34.8410513,12.3211642 34.5468603,12.023368 34.1838249,12.023368 Z M19.0406709,23.7376299 C18.6921766,24.0889813 18.128605,24.0889813 17.7801106,23.7376299 L7.50963338,13.3539293 L13.1525794,13.3539293 C13.4021612,13.3559252 13.6312867,13.2147193 13.7440832,12.9893555 L15.0053007,10.4373389 L17.1333998,16.8905613 C17.2229469,17.1618295 17.4738431,17.3448649 17.7564505,17.344948 L17.7761673,17.344948 C18.0662506,17.3361331 18.3163253,17.1358004 18.3913312,16.8519751 L20.3275202,9.51259875 L21.0576988,12.8390021 C21.1361552,13.1977547 21.487032,13.4241996 21.8414413,13.3447817 C21.995068,13.3103534 22.1313603,13.221289 22.2255901,13.0938046 L23.5591026,11.2975468 L24.3944373,12.9893555 C24.5064944,13.2157173 24.7357843,13.3580873 24.9859411,13.3565904 L29.3144343,13.3565904 L19.0406709,23.7376299 Z M30.4422349,12.0253638 L25.3888209,12.0253638 L24.2597059,9.73480249 C24.0990141,9.40532225 23.7049247,9.27002079 23.3794333,9.43268191 C23.2858607,9.47941788 23.2045289,9.54810811 23.142421,9.63301455 L22.0251361,11.1352183 L21.0208941,6.56540541 C20.954925,6.26611227 20.6954027,6.05130977 20.3925857,6.04515593 C20.091083,6.04199584 19.8250707,6.244158 19.7439032,6.5381289 L17.6802122,14.3631601 L15.7440232,8.49272349 C15.6291729,8.14419958 15.2569363,7.955842 14.9126318,8.07209979 C14.7473393,8.12790021 14.6107184,8.24781705 14.5327549,8.40557173 L12.7431274,12.0253638 L6.37854671,12.0253638 C4.90603092,9.82162162 4.83086065,6.95301455 6.18597937,4.67334719 C8.11436384,1.42428274 12.2797006,0.372889813 15.489348,2.32490644 C15.9638654,2.61347193 16.4016604,2.95975052 16.7929566,3.35609148 L17.9457317,4.52099792 C18.2023786,4.78070686 18.6184029,4.78070686 18.8750499,4.52099792 L20.027825,3.35609148 C22.6685608,0.674511435 26.9567988,0.667609148 29.6059142,3.34070686 C31.9035778,5.65912682 32.2543724,9.30137214 30.4422349,12.0253638 Z" id="Shape"></path>
                                <path d="M11.3872693,29.2255301 L8.55199448,27.5869439 L8.55199448,24.650395 C8.56735715,23.1980873 7.41663584,22.0081497 5.98191057,21.9925988 C5.74005125,21.9900208 5.49909561,22.0215385 5.26586238,22.0864033 L5.26586238,19.3341372 C5.26586238,17.8644491 4.08885202,16.6730146 2.6369567,16.6730146 C1.18506139,16.6730146 0.00805102364,17.8644491 0.00805102364,19.3341372 L0.00805102364,24.8393347 C0.00805102364,29.0962994 2.11207925,33.0709356 5.61353516,35.4286071 L7.89476806,36.966736 L7.89476806,39.2679418 C7.89476806,39.635343 8.18904119,39.9332225 8.55199448,39.9332225 C8.91494777,39.9332225 9.2092209,39.635343 9.2092209,39.2679418 L9.2092209,36.6108108 C9.2090566,36.3886902 9.09929978,36.181289 8.91675515,36.0579626 L6.34305649,34.3229106 C3.20718278,32.2113929 1.32275032,28.6518087 1.32250386,24.8393347 L1.32250386,19.3341372 C1.32250386,18.5992516 1.91096797,18.0035759 2.6369567,18.0035759 C3.36294544,18.0035759 3.95140954,18.5992516 3.95140954,19.3341372 L3.95140954,22.9106861 C3.53029171,23.3901871 3.29656557,24.008815 3.29418312,24.650395 L3.29418312,27.3115177 C3.29418312,27.6789189 3.58845625,27.9767983 3.95140954,27.9767983 C4.31436283,27.9767983 4.60863596,27.6789189 4.60863596,27.3115177 L4.60863596,24.650395 C4.60863596,23.9155094 5.19710007,23.3198337 5.9230888,23.3198337 C6.64907754,23.3198337 7.23754164,23.9155094 7.23754164,24.650395 L7.23754164,27.9728067 C7.23729518,28.2107277 7.36257897,28.4306861 7.56615485,28.549605 L10.7326717,30.3791268 C12.227944,31.2410811 13.1516757,32.8485655 13.1525794,34.5903534 L13.1525794,39.2679418 C13.1525794,39.635343 13.4468526,39.9332225 13.8098058,39.9332225 C14.1727591,39.9332225 14.4670323,39.635343 14.4670323,39.2679418 L14.4670323,34.5903534 C14.467443,32.3718087 13.291665,30.323659 11.3872693,29.2255301 Z" id="Shape"></path>
                                <path d="M34.1838249,16.676341 C32.733244,16.676341 31.5567266,17.8656965 31.5549192,19.3341372 L31.5549192,22.0864033 C30.1713754,21.7016216 28.7415793,22.5250728 28.361456,23.9255717 C28.2973764,24.1616632 28.2661582,24.4055717 28.2687871,24.650395 L28.2687871,27.5869439 L25.4335123,29.2255301 C23.5291166,30.323659 22.3534207,32.3718087 22.3537493,34.5903534 L22.3537493,39.2679418 C22.3537493,39.635343 22.6480224,39.9332225 23.0109757,39.9332225 C23.373929,39.9332225 23.6682021,39.635343 23.6682021,39.2679418 L23.6682021,34.5903534 C23.6690237,32.8492308 24.5915231,31.242079 26.0854809,30.3791268 L29.2519978,28.549605 C29.4555737,28.4306861 29.5808575,28.2107277 29.580611,27.9728067 L29.580611,24.650395 C29.580611,23.9155094 30.1690751,23.3198337 30.8950639,23.3198337 C31.6210526,23.3198337 32.2095167,23.9155094 32.2095167,24.650395 L32.2095167,27.3115177 C32.2095167,27.6789189 32.5037898,27.9767983 32.8667431,27.9767983 C33.2296964,27.9767983 33.5239695,27.6789189 33.5239695,27.3115177 L33.5239695,24.650395 C33.5215871,24.008815 33.2878609,23.3901871 32.8667431,22.9106861 L32.8667431,19.3341372 C32.8667431,18.5992516 33.4552072,18.0035759 34.181196,18.0035759 C34.9071847,18.0035759 35.4956488,18.5992516 35.4956488,19.3341372 L35.4956488,24.8393347 C35.4945808,28.6515593 33.6103948,32.2108108 30.4750962,34.3229106 L27.9013975,36.0579626 C27.7188529,36.181289 27.6090961,36.3886902 27.6089318,36.6108108 L27.6089318,39.2679418 C27.6089318,39.635343 27.9032049,39.9332225 28.2661582,39.9332225 C28.6291115,39.9332225 28.9233846,39.635343 28.9233846,39.2679418 L28.9233846,36.9660707 L31.2046175,35.4279418 C34.7062377,33.0704366 36.8110875,29.0962994 36.8127305,24.8393347 L36.8127305,19.3341372 C36.8109232,17.8656965 35.6344879,16.676341 34.1838249,16.676341 Z" id="Shape"></path>
                            </g>
                        </g>
                    </g>
                </g>
            </g>
        </g>
    </g>
</svg>