<?xml version="1.0" encoding="UTF-8"?>
<svg width="28px" height="30px" viewBox="0 0 28 30" version="1.1" xmlns="http://www.w3.org/2000/svg" xmlns:xlink="http://www.w3.org/1999/xlink">
    <!-- Generator: Sketch 51.3 (57544) - http://www.bohemiancoding.com/sketch -->
    <title>002-heart-rate</title>
    <desc>Created with Sketch.</desc>
    <defs>
        <linearGradient x1="50%" y1="-2.48949813e-15%" x2="50%" y2="100%" id="linearGradient-1">
            <stop stop-color="#4A6180" offset="0%"></stop>
            <stop stop-color="#243249" offset="100%"></stop>
        </linearGradient>
    </defs>
    <g id="Mobile" stroke="none" stroke-width="1" fill="none" fill-rule="evenodd">
        <g id="About_Mobile" transform="translate(-49.000000, -1127.000000)" fill="url(#linearGradient-1)" fill-rule="nonzero">
            <g id="about_add" transform="translate(49.000000, 1005.000000)">
                <g id="Group-5">
                    <g id="Group-4" transform="translate(0.000000, 122.000000)">
                        <g id="002-heart-rate">
                            <path d="M25.6378686,9.01752599 L23.9782076,9.01752599 C25.5399008,6.01740125 24.4032277,2.30376299 21.4393625,0.722993763 C19.0880118,-0.531205821 16.2038763,-0.0898128898 14.3238801,1.81203742 L13.8077931,2.3339501 L13.291706,1.81203742 C10.931914,-0.592702703 7.09311614,-0.605613306 4.7175507,1.78309771 C2.82091849,3.69024948 2.38215824,6.62975052 3.63744016,9.0189605 L1.97771753,9.0189605 C1.70550256,9.0189605 1.48479771,9.24237006 1.48479771,9.517921 C1.48479771,9.79347193 1.70550256,10.0168815 1.97771753,10.0168815 L1.97771753,10.0153846 L4.28901854,10.0153846 C4.42056652,10.1808524 4.56043251,10.3393971 4.70800038,10.490395 L12.6380944,18.5081913 C13.2848668,19.1601455 14.3307194,19.1601455 14.9774918,18.5081913 L22.9075858,10.490395 C23.0551537,10.3393971 23.1950197,10.1808524 23.3265676,10.0153846 L25.6378686,10.0153846 C25.9100836,10.0153846 26.1307885,9.79197505 26.1307885,9.51642412 C26.1307885,9.24087318 25.9101452,9.01752599 25.6378686,9.01752599 Z M14.2805032,17.8032225 C14.0191325,18.066736 13.5964537,18.066736 13.335083,17.8032225 L5.63222504,10.015447 L9.86443457,10.015447 C10.0516209,10.0169439 10.223465,9.9110395 10.3080624,9.74201663 L11.2539755,7.82800416 L12.8500499,12.667921 C12.9172102,12.8713721 13.1053824,13.0086486 13.3173379,13.008711 L13.3321255,13.008711 C13.5496879,13.0020998 13.7372439,12.8518503 13.7934984,12.6389813 L15.2456402,7.13444906 L15.7932741,9.62925156 C15.8521164,9.89831601 16.115274,10.0681497 16.381081,10.0085863 C16.496301,9.98276507 16.5985202,9.91596674 16.6691926,9.82035343 L17.6693269,8.47316008 L18.295828,9.74201663 C18.3798708,9.91178794 18.5518382,10.0185655 18.7394558,10.0174428 L21.9858257,10.0174428 L14.2805032,17.8032225 Z M22.8316761,9.01902287 L19.0416157,9.01902287 L18.1947794,7.30110187 C18.0742605,7.05399168 17.7786935,6.95251559 17.534575,7.07451143 C17.4643955,7.10956341 17.4033967,7.16108108 17.3568158,7.22476091 L16.5188521,8.35141372 L15.7656706,4.92405405 C15.7161938,4.6995842 15.5215521,4.53848233 15.2944392,4.53386694 C15.0683123,4.53149688 14.868803,4.6831185 14.8079274,4.90359667 L13.2601592,10.7723701 L11.8080174,6.36954262 C11.7218797,6.10814969 11.4427022,5.9668815 11.1844738,6.05407484 C11.0605045,6.09592516 10.9580388,6.18586279 10.8995662,6.30417879 L9.55734552,9.01902287 L4.78391003,9.01902287 C3.67952319,7.36621622 3.62314548,5.21476091 4.63948453,3.5050104 C6.08577288,1.06821206 9.20977544,0.27966736 11.617011,1.74367983 C11.9728991,1.96010395 12.3012453,2.21981289 12.5947174,2.51706861 L13.4592988,3.39074844 C13.651784,3.58553015 13.9638022,3.58553015 14.1562874,3.39074844 L15.0208688,2.51706861 C17.0014206,0.505883576 20.2175991,0.500706861 22.2044357,2.50553015 C23.9276833,4.24434511 24.1907793,6.97602911 22.8316761,9.01902287 Z" id="Shape"></path>
                            <path d="M8.54045194,21.9191476 L6.41399586,20.6902079 L6.41399586,18.4877963 C6.42551786,17.3985655 5.56247688,16.5061123 4.48643293,16.4944491 C4.30503843,16.4925156 4.12432171,16.5161538 3.94939679,16.5648025 L3.94939679,14.5006029 C3.94939679,13.3983368 3.06663901,12.5047609 1.97771753,12.5047609 C0.888796041,12.5047609 0.00603826773,13.3983368 0.00603826773,14.5006029 L0.00603826773,18.629501 C0.00603826773,21.8222245 1.58405944,24.8032017 4.21015137,26.5714553 L5.92107605,27.725052 L5.92107605,29.4509563 C5.92107605,29.7265073 6.14178089,29.9499168 6.41399586,29.9499168 C6.68621083,29.9499168 6.90691568,29.7265073 6.90691568,29.4509563 L6.90691568,27.4581081 C6.90679245,27.2915177 6.82447484,27.1359667 6.68756636,27.0434719 L4.75729236,25.742183 C2.40538708,24.1585447 0.992062743,21.4888565 0.991877898,18.629501 L0.991877898,14.5006029 C0.991877898,13.9494387 1.43322598,13.5026819 1.97771753,13.5026819 C2.52220908,13.5026819 2.96355716,13.9494387 2.96355716,14.5006029 L2.96355716,17.1830146 C2.64771879,17.5426403 2.47242418,18.0066112 2.47063734,18.4877963 L2.47063734,20.4836383 C2.47063734,20.7591892 2.69134219,20.9825988 2.96355716,20.9825988 C3.23577213,20.9825988 3.45647697,20.7591892 3.45647697,20.4836383 L3.45647697,18.4877963 C3.45647697,17.936632 3.89782505,17.4898753 4.4423166,17.4898753 C4.98680815,17.4898753 5.42815623,17.936632 5.42815623,18.4877963 L5.42815623,20.979605 C5.42797139,21.1580457 5.52193423,21.3230146 5.67461614,21.4122037 L8.04950381,22.7843451 C9.170958,23.4308108 9.8637568,24.6364241 9.86443457,25.9427651 L9.86443457,29.4509563 C9.86443457,29.7265073 10.0851394,29.9499168 10.3573544,29.9499168 C10.6295693,29.9499168 10.8502742,29.7265073 10.8502742,29.4509563 L10.8502742,25.9427651 C10.8505823,24.2788565 9.96874872,22.7427443 8.54045194,21.9191476 Z" id="Shape"></path>
                            <path d="M25.6378686,12.5072557 C24.549933,12.5072557 23.6675449,13.3992723 23.6661894,14.5006029 L23.6661894,16.5648025 C22.6285316,16.2762162 21.5561845,16.8938046 21.271092,17.9441788 C21.2230323,18.1212474 21.1996186,18.3041788 21.2015903,18.4877963 L21.2015903,20.6902079 L19.0751342,21.9191476 C17.6468375,22.7427443 16.7650655,24.2788565 16.765312,25.9427651 L16.765312,29.4509563 C16.765312,29.7265073 16.9860168,29.9499168 17.2582318,29.9499168 C17.5304468,29.9499168 17.7511516,29.7265073 17.7511516,29.4509563 L17.7511516,25.9427651 C17.7517678,24.6369231 18.4436423,23.4315593 19.5641107,22.7843451 L21.9389984,21.4122037 C22.0916803,21.3230146 22.1856431,21.1580457 22.1854583,20.979605 L22.1854583,18.4877963 C22.1854583,17.936632 22.6268063,17.4898753 23.1712979,17.4898753 C23.7157894,17.4898753 24.1571375,17.936632 24.1571375,18.4877963 L24.1571375,20.4836383 C24.1571375,20.7591892 24.3778424,20.9825988 24.6500573,20.9825988 C24.9222723,20.9825988 25.1429772,20.7591892 25.1429772,20.4836383 L25.1429772,18.4877963 C25.1411903,18.0066112 24.9658957,17.5426403 24.6500573,17.1830146 L24.6500573,14.5006029 C24.6500573,13.9494387 25.0914054,13.5026819 25.635897,13.5026819 C26.1803885,13.5026819 26.6217366,13.9494387 26.6217366,14.5006029 L26.6217366,18.629501 C26.6209356,21.4886694 25.2077961,24.1581081 22.8563221,25.742183 L20.9260481,27.0434719 C20.7891397,27.1359667 20.706822,27.2915177 20.7066988,27.4581081 L20.7066988,29.4509563 C20.7066988,29.7265073 20.9274037,29.9499168 21.1996186,29.9499168 C21.4718336,29.9499168 21.6925384,29.7265073 21.6925384,29.4509563 L21.6925384,27.724553 L23.4034631,26.5709563 C26.0296783,24.8028274 27.6083156,21.8222245 27.6095479,18.629501 L27.6095479,14.5006029 C27.6081924,13.3992723 26.7258659,12.5072557 25.6378686,12.5072557 Z" id="Shape"></path>
                        </g>
                    </g>
                </g>
            </g>
        </g>
    </g>
</svg>