<?xml version="1.0" encoding="UTF-8"?>
<svg width="33px" height="30px" viewBox="0 0 33 30" version="1.1" xmlns="http://www.w3.org/2000/svg" xmlns:xlink="http://www.w3.org/1999/xlink">
    <!-- Generator: Sketch 51.3 (57544) - http://www.bohemiancoding.com/sketch -->
    <title>001-insurance</title>
    <desc>Created with Sketch.</desc>
    <defs>
        <linearGradient x1="50%" y1="-2.48949813e-15%" x2="50%" y2="100%" id="linearGradient-1">
            <stop stop-color="#4A6180" offset="0%"></stop>
            <stop stop-color="#243249" offset="100%"></stop>
        </linearGradient>
    </defs>
    <g id="Mobile" stroke="none" stroke-width="1" fill="none" fill-rule="evenodd">
        <g id="About_Mobile" transform="translate(-51.000000, -1188.000000)" fill="url(#linearGradient-1)" fill-rule="nonzero">
            <g id="about_add" transform="translate(49.000000, 1005.000000)">
                <g id="Group-5">
                    <g id="Group-7" transform="translate(2.000000, 183.000000)">
                        <g id="001-insurance">
                            <path d="M27.479514,0.783477273 C27.4432762,0.783477273 27.4071059,0.787159091 27.3716091,0.794522727 C26.2909434,1.01468182 25.1680453,0.816545455 24.2247193,0.23925 L23.9881638,0.0947045455 C23.973278,0.0872045455 23.9579881,0.0804545455 23.9423614,0.0745227273 C23.9267348,0.0668863636 23.9111081,0.0603409091 23.8949425,0.0537954545 C23.7753176,0.00906818182 23.643838,0.00906818182 23.5242131,0.0537954545 C23.5080475,0.0603409091 23.4924209,0.0668863636 23.4767942,0.0745227273 C23.4611675,0.0804545455 23.445945,0.0872045455 23.4309919,0.0947045455 L23.1944363,0.23925 C22.2500326,0.817909091 21.1252485,1.01611364 20.0432357,0.794522727 C19.75165,0.73425 19.467002,0.924681818 19.4075263,1.21984091 C19.4002518,1.25577273 19.3966146,1.29238636 19.3966146,1.32906818 L19.3966146,6.82179545 C19.3966146,7.59552273 19.6032639,8.35486364 19.9947392,9.01943182 C20.4474413,9.79084091 21.1305023,10.3967045 21.9453797,10.7496136 L23.4961928,11.4259773 C23.6313771,11.4848864 23.7845455,11.4848864 23.9197297,11.4259773 L25.4710817,10.7496136 C26.2851508,10.3962955 26.9674708,9.79043182 27.4195668,9.01943182 C27.8112441,8.35493182 28.0180955,7.59559091 28.0182302,6.82179545 L28.0182302,1.32906818 C28.0182976,1.02777273 27.7770944,0.783477273 27.479514,0.783477273 Z M23.1685714,10.0955455 L22.3694554,9.747 C21.7638543,9.48409091 21.2562567,9.03334091 20.9199463,8.45972727 C20.62863,7.96479545 20.4746533,7.3995 20.4743165,6.82336364 L20.4743165,1.95572727 C21.3979745,2.03018182 22.3251349,1.86559091 23.1685714,1.47736364 L23.1685714,10.0955455 Z M26.9405283,6.82172727 C26.9401915,7.39786364 26.7862148,7.96315909 26.4948985,8.45809091 C26.1585882,9.03170455 25.6509905,9.48245455 25.0453894,9.74536364 L24.2462734,10.0960909 L24.2462734,1.47736364 C25.0897772,1.86545455 26.0169377,2.03004545 26.9405283,1.95572727 L26.9405283,6.82172727 Z" id="Shape"></path>
                            <path d="M30.626269,10.707 C30.5156025,10.4273864 30.2019238,10.2915 29.9256954,10.4034545 C29.6493995,10.5154773 29.5151583,10.833 29.6258248,11.1126136 C29.6299335,11.1229773 29.634379,11.1332045 29.639094,11.1432955 C30.3512529,12.7946591 30.7167959,14.5778182 30.7124851,16.3796591 C30.7124851,16.6808864 30.9537557,16.9251136 31.2513361,16.9251136 C31.5489166,16.9251136 31.7901871,16.6808864 31.7901871,16.3796591 C31.794902,14.4276136 31.3985098,12.4958182 30.626269,10.707 Z" id="Shape"></path>
                            <path d="M16.1635087,2.19790909 C12.0686454,2.19695455 8.17861281,4.01072727 5.51796874,7.16154545 C5.32452124,7.3905 5.35105965,7.73481818 5.57724235,7.93063636 C5.80342505,8.12645455 6.14357473,8.09959091 6.33702223,7.87063636 C8.79276821,4.962 12.3836038,3.28765909 16.1635087,3.28881818 C16.4610891,3.28881818 16.7023597,3.04459091 16.7023597,2.74336364 C16.7023597,2.44213636 16.4610891,2.19790909 16.1635087,2.19790909 Z" id="Shape"></path>
                            <path d="M31.8365283,20.967 L28.250475,17.3348182 C28.0518411,17.1354545 27.8287568,16.96275 27.5866106,16.821 C28.7304565,15.8575909 28.8861845,14.1379773 27.9344389,12.9801818 C26.9826934,11.8223182 25.2838983,11.6646818 24.1401197,12.6280909 C22.9962738,13.5915 22.8405459,15.3111136 23.7922914,16.4689091 C23.9214136,16.626 24.0675769,16.7678864 24.2279525,16.8919091 C24.0349764,17.0164773 23.8557411,17.1616364 23.6934123,17.325 L22.7137812,18.2664545 C22.3708699,18.5981591 21.8277081,18.5871818 21.4981334,18.2419091 L17.9104636,14.6097273 C17.7580361,14.4558409 17.5906555,14.3178409 17.4109487,14.1979091 C18.8999287,13.2003409 19.3081083,11.16975 18.3226172,9.66252273 C17.3371261,8.15529545 15.3311186,7.74211364 13.8421387,8.73968182 C12.3531587,9.73725 11.9449791,11.7678409 12.9304702,13.2750682 C13.1700568,13.6415455 13.4800982,13.9553864 13.8421387,14.1979091 C13.6626339,14.3181818 13.4955228,14.4563182 13.3431627,14.6102727 L10.5977169,17.3920909 L8.17881488,15.6335455 C8.03972397,15.4997045 7.88918248,15.3786818 7.72887431,15.2719091 C7.94791724,15.1208182 8.14803302,14.9433409 8.3248435,14.7433636 L9.69729694,14.7433636 C9.99487739,14.7435 10.2362826,14.4994091 10.2364173,14.1981818 C10.2364847,14.1134318 10.2170187,14.0299091 10.1795686,13.9540909 L8.98008629,11.5251818 C8.88410346,11.2241591 8.7444737,10.9392273 8.56570988,10.6797273 C8.53587101,10.6210909 8.49545719,10.5685227 8.44662382,10.5248182 C7.34932115,9.11652273 5.33193044,8.87529545 3.94068457,9.98604545 C3.72514418,10.1581364 3.53223553,10.3575682 3.36687563,10.5793636 C3.34565838,10.6031591 3.32619238,10.6284545 3.30867973,10.6551818 C3.12311292,10.9205455 2.97775787,11.2125 2.87759894,11.5213636 L1.67596126,13.953 C1.54232622,14.2221818 1.64955756,14.55 1.91548052,14.6852727 C1.9893031,14.7228409 2.07073696,14.7426818 2.15338323,14.7433636 L3.53014748,14.7433636 C3.70601497,14.9415682 3.90505305,15.1174091 4.12288356,15.267 C3.94997975,15.3838636 3.78866124,15.5173636 3.64115078,15.6657273 L0.492644508,18.8888182 C-0.16414748,19.5535909 -0.164214836,20.6314773 0.492509795,21.2963182 C0.807939687,21.6156136 1.23578737,21.795 1.68188862,21.795 C2.0811772,21.7935682 2.46719657,21.6497045 2.77198415,21.3886364 L1.63231433,26.025 C1.55822232,26.31675 1.73179969,26.6140909 2.02001761,26.6890909 C2.06359718,26.7004091 2.10838917,26.7062045 2.15338323,26.7062727 L3.23108519,26.7062727 L3.23108519,28.3426364 C3.23054634,29.2439318 3.95186573,29.9751136 4.84231697,29.9756591 C5.24254854,29.9759318 5.62863526,29.8254545 5.92534008,29.5535455 C6.58543253,30.1584545 7.60500594,30.1071136 8.20259168,29.4389318 C8.47120889,29.1385909 8.61986441,28.7477727 8.61959498,28.3426364 L8.61959498,26.7062727 L9.69729694,26.7062727 C9.99487739,26.7064773 10.23635,26.4624545 10.2365521,26.1612273 C10.2365521,26.1165682 10.2312309,26.0721136 10.2205212,26.0288182 L8.89117587,20.6162727 L9.63479023,21.0051818 C9.95500242,21.1750909 10.3127995,21.2595682 10.6742338,21.2506364 C10.7089223,21.2528182 10.7436782,21.2519318 10.778232,21.2479091 C10.8019414,21.2479091 10.8267286,21.2517273 10.8401999,21.2517273 C11.2862338,21.2504318 11.713812,21.0711136 12.0299828,20.7526364 L12.9304028,19.8411818 L12.9304028,28.3426364 C12.9278433,29.2430455 13.6468052,29.9751136 14.5363134,29.9777045 C14.9387004,29.9788636 15.3269425,29.8275682 15.6246577,29.5535455 C16.2847502,30.1584545 17.3043236,30.1071136 17.9019093,29.4389318 C18.1705265,29.1385909 18.319182,28.7477727 18.3189126,28.3426364 L18.3189126,19.8411818 L20.0432357,21.5866364 C20.8538023,22.4326364 22.0914757,22.6939773 23.1685714,22.2466364 L23.1685714,28.3426364 C23.1660119,29.2430455 23.8849738,29.9751136 24.7744821,29.9777045 C25.176869,29.9788636 25.5651112,29.8275682 25.8628263,29.5535455 C26.5229188,30.1584545 27.5424922,30.1071136 28.1400779,29.4389318 C28.4086951,29.1385909 28.5573506,28.7477727 28.5570812,28.3426364 L28.5570812,22.5155455 L29.4575012,23.3746364 C30.11463,24.0394773 31.1798037,24.0392045 31.8365956,23.3740227 C32.1517561,23.0548636 32.328836,22.6221136 32.3290381,22.1708182 C32.3303179,21.7190455 32.1529685,21.2855455 31.8365283,20.967 Z M25.8628263,13.107 C26.755635,13.107 27.4793793,13.8396136 27.4793793,14.7433636 C27.4793793,15.6471136 26.755635,16.3797273 25.8628263,16.3797273 C24.9700176,16.3797273 24.2462734,15.6471136 24.2462734,14.7433636 C24.2462734,13.8396136 24.9700176,13.107 25.8628263,13.107 Z M13.4692538,11.4706364 C13.4692538,10.2656591 14.4342685,9.28881818 15.6246577,9.28881818 C16.8150469,9.28881818 17.7800616,10.2656591 17.7800616,11.4706364 C17.7800616,12.6756136 16.8150469,13.6524545 15.6246577,13.6524545 C14.4342685,13.6524545 13.4692538,12.6756136 13.4692538,11.4706364 Z M3.78286859,13.6524545 L3.02847722,13.6524545 L3.85615232,11.9746364 C3.86834383,11.9499545 3.87878406,11.9244545 3.88740568,11.8982727 C3.95462734,11.6811136 4.05498833,11.4758864 4.18485142,11.2900909 C4.19455074,11.2786364 4.20478891,11.2666364 4.21394937,11.2540909 C4.91425358,10.2961364 6.24912217,10.09425 7.19554656,10.8031364 C7.36528461,10.9302955 7.51542197,11.0822727 7.6410416,11.2540909 C7.64966322,11.2660909 7.65936254,11.2775455 7.66906185,11.289 C7.79966586,11.4748636 7.90043099,11.6805 7.9675853,11.8982727 C7.97620691,11.9244545 7.98664715,11.9499545 7.99883865,11.9746364 L8.82759146,13.6524545 L8.07320009,13.6524545 C7.90359674,13.6524545 7.74389478,13.7333182 7.6421193,13.8706364 C7.27058155,14.37 6.70310412,14.6814545 6.08699538,14.7242727 C5.97653093,14.7188182 5.86768303,14.7177273 5.75721858,14.7242727 C5.14535329,14.6779773 4.58292758,14.3668636 4.21394937,13.8706364 C4.11217389,13.7333182 3.95247193,13.6524545 3.78286859,13.6524545 Z M31.0754686,22.6030227 C30.9623773,22.7176364 30.8089395,22.7820682 30.6489007,22.7822727 C30.4835408,22.7806364 30.3256575,22.7123864 30.2102087,22.5924545 L28.3899701,20.8524545 C28.1745644,20.6445682 27.8334717,20.6528182 27.6281695,20.8708636 C27.5315805,20.9734091 27.4781669,21.1100455 27.4793119,21.2517273 L27.4793119,28.3426364 C27.4793119,28.6438636 27.2380414,28.8880909 26.9404609,28.8880909 C26.6428805,28.8880909 26.4016099,28.6438636 26.4016099,28.3426364 L26.4016099,24.2615455 C26.4016099,23.9603182 26.1603394,23.7160909 25.862759,23.7160909 C25.5651785,23.7160909 25.323908,23.9603182 25.323908,24.2615455 L25.323908,28.3426364 C25.323908,28.6438636 25.0826375,28.8880909 24.785057,28.8880909 C24.4874766,28.8880909 24.246206,28.6438636 24.246206,28.3426364 L24.246206,21.2517273 C24.2463407,20.9505 24.0052049,20.7062045 23.7075571,20.7060682 C23.5700828,20.706 23.4377275,20.7591818 23.3377033,20.8546364 C22.6410363,21.5510455 21.5186097,21.5439545 20.8306317,20.83875 C20.8220101,20.8299545 20.8135232,20.8210227 20.8051037,20.8120909 L18.1647339,18.1393636 C17.9564006,17.92425 17.6152406,17.9209091 17.4027312,18.1317955 C17.2985983,18.2351591 17.240335,18.3768409 17.2411433,18.5244545 L17.2411433,28.3426364 C17.2411433,28.6438636 16.9998728,28.8880909 16.7022923,28.8880909 C16.4047119,28.8880909 16.1634413,28.6438636 16.1634413,28.3426364 L16.1634413,21.7971818 C16.1634413,21.4959545 15.9221708,21.2517273 15.6245904,21.2517273 C15.3270099,21.2517273 15.0857394,21.4959545 15.0857394,21.7971818 L15.0857394,28.3426364 C15.0857394,28.6438636 14.8444689,28.8880909 14.5468884,28.8880909 C14.2493079,28.8880909 14.0080374,28.6438636 14.0080374,28.3426364 L14.0080374,18.5244545 C14.0079701,18.2232273 13.7666995,17.9790682 13.4690517,17.9791364 C13.3261889,17.9791364 13.1892534,18.0366136 13.0882188,18.1388182 L11.2695967,19.9797273 C11.1656659,20.0860909 11.0269117,20.15025 10.8794686,20.1602727 C10.8654585,20.1602727 10.8255835,20.1537273 10.809418,20.1526364 C10.7932525,20.1515455 10.7813978,20.1526364 10.7679265,20.1526364 C10.7428026,20.1507273 10.7176113,20.1507273 10.6924873,20.1526364 C10.6742338,20.1526364 10.6560475,20.1553636 10.6386022,20.1608182 C10.4627348,20.1605455 10.2894942,20.1179318 10.13316,20.0364545 L8.3317812,19.0933636 C8.0674748,18.9549545 7.74234559,19.0596818 7.60561215,19.3272273 C7.54553027,19.4448409 7.52970152,19.5805909 7.5612243,19.7091818 L9.01181114,25.6153636 L8.080744,25.6153636 C7.78316355,25.6153636 7.54189302,25.8595909 7.54189302,26.1608182 L7.54189302,28.3426364 C7.54189302,28.6438636 7.3006225,28.8880909 7.00304204,28.8880909 C6.70546159,28.8880909 6.46419106,28.6438636 6.46419106,28.3426364 L6.46419106,26.1608182 C6.46419106,25.8595909 6.22292054,25.6153636 5.92534008,25.6153636 C5.62775963,25.6153636 5.3864891,25.8595909 5.3864891,26.1608182 L5.3864891,28.3426364 C5.3864891,28.6438636 5.14521858,28.8880909 4.84763812,28.8880909 C4.55005767,28.8880909 4.30878715,28.6438636 4.30878715,28.3426364 L4.30878715,26.1608182 C4.30878715,25.8595909 4.06751662,25.6153636 3.76993617,25.6153636 L2.84472903,25.6153636 L4.29531587,19.707 C4.36678098,19.4145682 4.19057671,19.1188636 3.90168523,19.0464545 C3.71571429,18.9998864 3.51923575,19.05675 3.38573542,19.1958409 L2.10919745,20.5251136 C1.8745952,20.7651818 1.49214572,20.7672955 1.25498393,20.5298864 C1.14020867,20.4149318 1.07561391,20.25825 1.07574862,20.09475 C1.07480564,19.9308409 1.13933304,19.7734773 1.25464715,19.6583864 L4.40584768,16.4342045 C4.75111644,16.0879773 5.20280828,15.8715 5.68615761,15.8205682 C5.7664464,15.8265682 5.8478129,15.8336591 5.92756284,15.8336591 C6.00731279,15.8336591 6.08921814,15.8265682 6.16896808,15.8205682 C6.65231741,15.8715 7.10400924,16.0879773 7.44927801,16.4342045 C7.46988906,16.4553409 7.49225138,16.4747045 7.51609553,16.4920227 L10.3407524,18.5451136 C10.5552151,18.7007045 10.8494277,18.6762273 11.0358701,18.4872955 L14.1073207,15.3782045 C14.9485344,14.5293409 16.3095373,14.5293409 17.150751,15.3782045 L20.7438094,19.0218409 C21.4860092,19.7816591 22.6934396,19.7974091 23.4547687,19.0572955 L24.4440991,18.1065682 C25.2956183,17.2834091 26.6360101,17.2834091 27.4875294,18.1065682 L31.0751992,21.7382045 C31.3111486,21.9769773 31.3112833,22.3641136 31.0754686,22.6030227 Z" id="Shape"></path>
                        </g>
                    </g>
                </g>
            </g>
        </g>
    </g>
</svg>