<?xml version="1.0" encoding="UTF-8"?>
<svg width="44px" height="40px" viewBox="0 0 44 40" version="1.1" xmlns="http://www.w3.org/2000/svg" xmlns:xlink="http://www.w3.org/1999/xlink">
    <!-- Generator: Sketch 51.3 (57544) - http://www.bohemiancoding.com/sketch -->
    <title>001-insurance</title>
    <desc>Created with Sketch.</desc>
    <defs>
        <linearGradient x1="50%" y1="-2.48949813e-15%" x2="50%" y2="100%" id="linearGradient-1">
            <stop stop-color="#4A6180" offset="0%"></stop>
            <stop stop-color="#243249" offset="100%"></stop>
        </linearGradient>
    </defs>
    <g id="Desktop" stroke="none" stroke-width="1" fill="none" fill-rule="evenodd">
        <g id="About_HD" transform="translate(-1271.000000, -1154.000000)" fill="url(#linearGradient-1)" fill-rule="nonzero">
            <g id="about" transform="translate(-14.000000, 752.000000)">
                <g id="about_add" transform="translate(419.000000, 402.000000)">
                    <g id="Group-5" transform="translate(289.000000, 0.000000)">
                        <g id="Group-6" transform="translate(288.464891, 0.000000)">
                            <g id="Group-7" transform="translate(289.452785, 0.000000)">
                                <g id="001-insurance">
                                    <path d="M36.639352,1.04463636 C36.591035,1.04463636 36.5428078,1.04954545 36.4954788,1.05936364 C35.0545912,1.35290909 33.5573938,1.08872727 32.2996258,0.319 L31.9842184,0.126272727 C31.9643707,0.116272727 31.9439842,0.107272727 31.9231486,0.0993636364 C31.902313,0.0891818182 31.8814774,0.0804545455 31.8599234,0.0717272727 C31.7004235,0.0120909091 31.5251173,0.0120909091 31.3656174,0.0717272727 C31.3440634,0.0804545455 31.3232278,0.0891818182 31.3023923,0.0993636364 C31.2815567,0.107272727 31.26126,0.116272727 31.2413225,0.126272727 L30.925915,0.319 C29.6667101,1.09054545 28.166998,1.35481818 26.7243143,1.05936364 C26.3355333,0.979 25.9560026,1.23290909 25.8767017,1.62645455 C25.8670024,1.67436364 25.8621528,1.72318182 25.8621528,1.77209091 L25.8621528,9.09572727 C25.8621528,10.1273636 26.1376852,11.1398182 26.6596522,12.0259091 C27.2632551,13.0544545 28.1740031,13.8622727 29.2605063,14.3328182 L31.3282571,15.2346364 C31.5085028,15.3131818 31.7127273,15.3131818 31.8929729,15.2346364 L33.9614422,14.3328182 C35.0468677,13.8617273 35.9566278,13.0539091 36.5594224,12.0259091 C37.0816588,11.1399091 37.3574607,10.1274545 37.3576403,9.09572727 L37.3576403,1.77209091 C37.3577301,1.37036364 37.0361259,1.04463636 36.639352,1.04463636 Z M30.8914286,13.4607273 L29.8259406,12.996 C29.0184724,12.6454545 28.3416755,12.0444545 27.8932617,11.2796364 C27.50484,10.6197273 27.2995378,9.866 27.2990887,9.09781818 L27.2990887,2.60763636 C28.5306326,2.70690909 29.7668466,2.48745455 30.8914286,1.96981818 L30.8914286,13.4607273 Z M35.9207044,9.09563636 C35.9202553,9.86381818 35.7149531,10.6175455 35.3265314,11.2774545 C34.8781175,12.0422727 34.2013207,12.6432727 33.3938525,12.9938182 L32.3283645,13.4614545 L32.3283645,1.96981818 C33.4530363,2.48727273 34.6892503,2.70672727 35.9207044,2.60763636 L35.9207044,9.09563636 Z" id="Shape"></path>
                                    <path d="M40.8350253,14.276 C40.68747,13.9031818 40.2692318,13.722 39.9009271,13.8712727 C39.5325327,14.0206364 39.3535444,14.444 39.5010997,14.8168182 C39.506578,14.8306364 39.5125054,14.8442727 39.518792,14.8577273 C40.4683372,17.0595455 40.9557279,19.4370909 40.9499802,21.8395455 C40.9499802,22.2411818 41.2716742,22.5668182 41.6684482,22.5668182 C42.0652221,22.5668182 42.3869161,22.2411818 42.3869161,21.8395455 C42.3932027,19.2368182 41.8646797,16.6610909 40.8350253,14.276 Z" id="Shape"></path>
                                    <path d="M21.5513449,2.93054545 C16.0915272,2.92927273 10.9048171,5.34763636 7.35729166,9.54872727 C7.09936166,9.854 7.1347462,10.3130909 7.43632313,10.5741818 C7.73790007,10.8352727 8.19143297,10.7994545 8.44936298,10.4941818 C11.723691,6.616 16.5114717,4.38354545 21.5513449,4.38509091 C21.9481189,4.38509091 22.2698129,4.05945455 22.2698129,3.65781818 C22.2698129,3.25618182 21.9481189,2.93054545 21.5513449,2.93054545 Z" id="Shape"></path>
                                    <path d="M42.4487044,27.956 L37.6673,23.1130909 C37.4024548,22.8472727 37.105009,22.617 36.7821475,22.428 C38.3072754,21.1434545 38.5149126,18.8506364 37.2459186,17.3069091 C35.9769245,15.7630909 33.7118644,15.5529091 32.1868263,16.8374545 C30.6616984,18.122 30.4540612,20.4148182 31.7230552,21.9585455 C31.8952181,22.168 32.0901026,22.3571818 32.3039366,22.5225455 C32.0466353,22.6886364 31.8076549,22.8821818 31.5912164,23.1 L30.2850416,24.3552727 C29.8278265,24.7975455 29.1036108,24.7829091 28.6641779,24.3225455 L23.8806181,19.4796364 C23.6773815,19.2744545 23.4542074,19.0904545 23.2145983,18.9305455 C25.1999049,17.6004545 25.7441444,14.893 24.4301563,12.8833636 C23.1161682,10.8737273 20.4414915,10.3228182 18.4561849,11.6529091 C16.4708783,12.983 15.9266388,15.6904545 17.2406269,17.7000909 C17.5600757,18.1887273 17.9734642,18.6071818 18.4561849,18.9305455 C18.2168453,19.0909091 17.9940304,19.2750909 17.7908836,19.4803636 L14.1302892,23.1894545 L10.9050865,20.8447273 C10.719632,20.6662727 10.51891,20.5049091 10.3051657,20.3625455 C10.597223,20.1610909 10.864044,19.9244545 11.0997913,19.6578182 L12.9297293,19.6578182 C13.3265032,19.658 13.6483768,19.3325455 13.6485565,18.9309091 C13.6486463,18.8179091 13.6226916,18.7065455 13.5727581,18.6054545 L11.9734484,15.3669091 C11.8454713,14.9655455 11.6592983,14.5856364 11.4209465,14.2396364 C11.3811613,14.1614545 11.3272762,14.0913636 11.2621651,14.0330909 C9.79909487,12.1553636 7.10924059,11.8337273 5.25424609,13.3147273 C4.9668589,13.5441818 4.70964737,13.8100909 4.48916751,14.1058182 C4.46087783,14.1375455 4.43492318,14.1712727 4.41157297,14.2069091 C4.16415056,14.5607273 3.97034383,14.95 3.83679859,15.3618182 L2.23461501,18.604 C2.05643495,18.9629091 2.19941008,19.4 2.55397403,19.5803636 C2.65240414,19.6304545 2.76098261,19.6569091 2.87117764,19.6578182 L4.70686331,19.6578182 C4.94135329,19.9220909 5.2067374,20.1565455 5.49717808,20.356 C5.26663967,20.5118182 5.05154832,20.6898182 4.85486771,20.8876364 L0.656859344,25.1850909 C-0.218863306,26.0714545 -0.218953115,27.5086364 0.656679727,28.3950909 C1.07725292,28.8208182 1.64771649,29.06 2.24251816,29.06 C2.77490293,29.0580909 3.28959542,28.8662727 3.69597887,28.5181818 L2.17641911,34.7 C2.07762976,35.089 2.30906626,35.4854545 2.69335681,35.5854545 C2.75146291,35.6005455 2.81118556,35.6082727 2.87117764,35.6083636 L4.30811358,35.6083636 L4.30811358,37.7901818 C4.30739511,38.9919091 5.2691543,39.9668182 6.45642263,39.9675455 C6.99006471,39.9679091 7.50484702,39.7672727 7.90045344,39.4047273 C8.78057671,40.2112727 10.1400079,40.1428182 10.9367889,39.2519091 C11.2949452,38.8514545 11.4931525,38.3303636 11.4927933,37.7901818 L11.4927933,35.6083636 L12.9297293,35.6083636 C13.3265032,35.6086364 13.6484667,35.2832727 13.6487361,34.8816364 C13.6487361,34.8220909 13.6416412,34.7628182 13.6273617,34.7050909 L11.8549012,27.4883636 L12.846387,28.0069091 C13.2733366,28.2334545 13.7503993,28.3460909 14.2323117,28.3341818 C14.2785631,28.3370909 14.3249042,28.3359091 14.370976,28.3305455 C14.4025886,28.3305455 14.4356381,28.3356364 14.4535998,28.3356364 C15.0483117,28.3339091 15.618416,28.0948182 16.0399771,27.6701818 L17.2405371,26.4549091 L17.2405371,37.7901818 C17.2371244,38.9907273 18.1957403,39.9668182 19.3817513,39.9702727 C19.9182672,39.9718182 20.4359234,39.7700909 20.832877,39.4047273 C21.7130002,40.2112727 23.0724314,40.1428182 23.8692124,39.2519091 C24.2273687,38.8514545 24.4255761,38.3303636 24.4252168,37.7901818 L24.4252168,26.4549091 L26.7243143,28.7821818 C27.8050698,29.9101818 29.4553009,30.2586364 30.8914286,29.6621818 L30.8914286,37.7901818 C30.8880158,38.9907273 31.8466317,39.9668182 33.0326427,39.9702727 C33.5691587,39.9718182 34.0868149,39.7700909 34.4837684,39.4047273 C35.3638917,40.2112727 36.7233229,40.1428182 37.5201039,39.2519091 C37.8782602,38.8514545 38.0764675,38.3303636 38.0761083,37.7901818 L38.0761083,30.0207273 L39.2766683,31.1661818 C40.15284,32.0526364 41.5730715,32.0522727 42.4487942,31.1653636 C42.8690081,30.7398182 43.1051147,30.1628182 43.1053841,29.5610909 C43.1070905,28.9587273 42.8706247,28.3807273 42.4487044,27.956 Z M34.4837684,17.476 C35.6741801,17.476 36.6391724,18.4528182 36.6391724,19.6578182 C36.6391724,20.8628182 35.6741801,21.8396364 34.4837684,21.8396364 C33.2933568,21.8396364 32.3283645,20.8628182 32.3283645,19.6578182 C32.3283645,18.4528182 33.2933568,17.476 34.4837684,17.476 Z M17.9590051,15.2941818 C17.9590051,13.6875455 19.2456914,12.3850909 20.832877,12.3850909 C22.4200625,12.3850909 23.7067488,13.6875455 23.7067488,15.2941818 C23.7067488,16.9008182 22.4200625,18.2032727 20.832877,18.2032727 C19.2456914,18.2032727 17.9590051,16.9008182 17.9590051,15.2941818 Z M5.04382479,18.2032727 L4.03796962,18.2032727 L5.14153643,15.9661818 C5.15779177,15.9332727 5.17171208,15.8992727 5.18320757,15.8643636 C5.27283645,15.5748182 5.40665111,15.3011818 5.57980189,15.0534545 C5.59273432,15.0381818 5.60638521,15.0221818 5.61859916,15.0054545 C6.5523381,13.7281818 8.33216289,13.459 9.59406207,14.4041818 C9.82037948,14.5737273 10.0205626,14.7763636 10.1880555,15.0054545 C10.199551,15.0214545 10.2124834,15.0367273 10.2254158,15.052 C10.3995545,15.2998182 10.533908,15.574 10.6234471,15.8643636 C10.6349425,15.8992727 10.6488629,15.9332727 10.6651182,15.9661818 L11.7701219,18.2032727 L10.7642668,18.2032727 C10.538129,18.2032727 10.325193,18.3110909 10.1894924,18.4941818 C9.69410874,19.16 8.93747215,19.5752727 8.11599384,19.6323636 C7.9687079,19.6250909 7.82357737,19.6236364 7.67629144,19.6323636 C6.86047105,19.5706364 6.11057011,19.1558182 5.61859916,18.4941818 C5.48289853,18.3110909 5.26996258,18.2032727 5.04382479,18.2032727 Z M41.4339582,30.1373636 C41.2831697,30.2901818 41.078586,30.3760909 40.865201,30.3763636 C40.6447211,30.3741818 40.43421,30.2831818 40.2802782,30.1232727 L37.8532934,27.8032727 C37.5660858,27.5260909 37.1112956,27.5370909 36.8375593,27.8278182 C36.7087739,27.9645455 36.6375558,28.1467273 36.6390825,28.3356364 L36.6390825,37.7901818 C36.6390825,38.1918182 36.3173885,38.5174545 35.9206146,38.5174545 C35.5238406,38.5174545 35.2021466,38.1918182 35.2021466,37.7901818 L35.2021466,32.3487273 C35.2021466,31.9470909 34.8804526,31.6214545 34.4836786,31.6214545 C34.0869047,31.6214545 33.7652107,31.9470909 33.7652107,32.3487273 L33.7652107,37.7901818 C33.7652107,38.1918182 33.4435166,38.5174545 33.0467427,38.5174545 C32.6499687,38.5174545 32.3282747,38.1918182 32.3282747,37.7901818 L32.3282747,28.3356364 C32.3284543,27.934 32.0069399,27.6082727 31.6100762,27.6080909 C31.426777,27.608 31.2503033,27.6789091 31.1169377,27.8061818 C30.1880484,28.7347273 28.6914796,28.7252727 27.7741757,27.785 C27.7626802,27.7732727 27.7513643,27.7613636 27.7401382,27.7494545 L24.2196452,24.1858182 C23.9418675,23.899 23.4869875,23.8945455 23.2036416,24.1757273 C23.0647977,24.3135455 22.9871134,24.5024545 22.9881911,24.6992727 L22.9881911,37.7901818 C22.9881911,38.1918182 22.666497,38.5174545 22.2697231,38.5174545 C21.8729492,38.5174545 21.5512551,38.1918182 21.5512551,37.7901818 L21.5512551,29.0629091 C21.5512551,28.6612727 21.2295611,28.3356364 20.8327871,28.3356364 C20.4360132,28.3356364 20.1143192,28.6612727 20.1143192,29.0629091 L20.1143192,37.7901818 C20.1143192,38.1918182 19.7926251,38.5174545 19.3958512,38.5174545 C18.9990773,38.5174545 18.6773832,38.1918182 18.6773832,37.7901818 L18.6773832,24.6992727 C18.6772934,24.2976364 18.3555994,23.9720909 17.9587356,23.9721818 C17.7682518,23.9721818 17.5856711,24.0488182 17.4509584,24.1850909 L15.026129,26.6396364 C14.8875545,26.7814545 14.702549,26.867 14.5059582,26.8803636 C14.487278,26.8803636 14.4341114,26.8716364 14.4125573,26.8701818 C14.3910033,26.8687273 14.375197,26.8701818 14.3572353,26.8701818 C14.3237367,26.8676364 14.2901484,26.8676364 14.2566498,26.8701818 C14.2323117,26.8701818 14.2080634,26.8738182 14.184803,26.8810909 C13.950313,26.8807273 13.7193256,26.8239091 13.51088,26.7152727 L11.1090416,25.4578182 C10.7566331,25.2732727 10.3231274,25.4129091 10.1408162,25.7696364 C10.060707,25.9264545 10.039602,26.1074545 10.0816324,26.2789091 L12.0157482,34.1538182 L10.7743253,34.1538182 C10.3775514,34.1538182 10.0558574,34.4794545 10.0558574,34.8810909 L10.0558574,37.7901818 C10.0558574,38.1918182 9.73416333,38.5174545 9.33738939,38.5174545 C8.94061545,38.5174545 8.61892142,38.1918182 8.61892142,37.7901818 L8.61892142,34.8810909 C8.61892142,34.4794545 8.29722738,34.1538182 7.90045344,34.1538182 C7.50367951,34.1538182 7.18198547,34.4794545 7.18198547,34.8810909 L7.18198547,37.7901818 C7.18198547,38.1918182 6.86029144,38.5174545 6.4635175,38.5174545 C6.06674356,38.5174545 5.74504953,38.1918182 5.74504953,37.7901818 L5.74504953,34.8810909 C5.74504953,34.4794545 5.42335549,34.1538182 5.02658155,34.1538182 L3.79297204,34.1538182 L5.72708783,26.276 C5.82237464,25.8860909 5.58743562,25.4918182 5.20224697,25.3952727 C4.95428571,25.3331818 4.69231433,25.409 4.51431389,25.5944545 L2.81226326,27.3668182 C2.49946027,27.6869091 1.98952762,27.6897273 1.67331191,27.3731818 C1.52027823,27.2199091 1.43415188,27.011 1.4343315,26.793 C1.43307418,26.5744545 1.51911072,26.3646364 1.67286287,26.2111818 L5.87446357,21.9122727 C6.33482192,21.4506364 6.9370777,21.162 7.58154347,21.0940909 C7.6885952,21.1020909 7.79708387,21.1115455 7.90341713,21.1115455 C8.00975039,21.1115455 8.11895752,21.1020909 8.22529078,21.0940909 C8.86975655,21.162 9.47201233,21.4506364 9.93237068,21.9122727 C9.95985208,21.9404545 9.9896685,21.9662727 10.0214607,21.9893636 L13.7876698,24.7268182 C14.0736201,24.9342727 14.4659036,24.9016364 14.7144935,24.6497273 L18.809761,20.5042727 C19.9313793,19.3724545 21.7460497,19.3724545 22.8676681,20.5042727 L27.6584125,25.3624545 C28.6480123,26.3755455 30.2579194,26.3965455 31.2730249,25.4097273 L32.5921321,24.1420909 C33.7274911,23.0445455 35.5146802,23.0445455 36.6500392,24.1420909 L41.4335989,28.9842727 C41.7481981,29.3026364 41.7483777,29.8188182 41.4339582,30.1373636 Z" id="Shape"></path>
                                </g>
                            </g>
                        </g>
                    </g>
                </g>
            </g>
        </g>
    </g>
</svg>