<?xml version="1.0" encoding="UTF-8"?>
<svg width="27px" height="40px" viewBox="0 0 27 40" version="1.1" xmlns="http://www.w3.org/2000/svg" xmlns:xlink="http://www.w3.org/1999/xlink">
    <!-- Generator: Sketch 51.3 (57544) - http://www.bohemiancoding.com/sketch -->
    <title>003-wounded</title>
    <desc>Created with Sketch.</desc>
    <defs>
        <linearGradient x1="50%" y1="-2.48949813e-15%" x2="50%" y2="100%" id="linearGradient-1">
            <stop stop-color="#4A6180" offset="0%"></stop>
            <stop stop-color="#243249" offset="100%"></stop>
        </linearGradient>
    </defs>
    <g id="Desktop" stroke="none" stroke-width="1" fill="none" fill-rule="evenodd">
        <g id="About_HD" transform="translate(-694.000000, -1154.000000)" fill="url(#linearGradient-1)" fill-rule="nonzero">
            <g id="about" transform="translate(-14.000000, 752.000000)">
                <g id="about_add" transform="translate(419.000000, 402.000000)">
                    <g id="Group-5" transform="translate(289.000000, 0.000000)">
                        <g id="003-wounded">
                            <path d="M22.3518598,24.3185863 C21.9889065,24.3185863 21.6946334,24.6164657 21.6946334,24.9838669 L21.6946334,39.2641164 C21.6946334,39.6315177 21.9889065,39.9293971 22.3518598,39.9293971 C22.7148131,39.9293971 23.0090862,39.6315177 23.0090862,39.2641164 L23.0090862,24.9838669 C23.0090862,24.6163825 22.7148952,24.3185863 22.3518598,24.3185863 Z" id="Shape"></path>
                            <path d="M18.8310978,9.52232848 C18.5808589,9.29230769 18.1991746,9.29197505 17.9485249,9.52141372 L15.5102149,11.9876091 L13.1290836,11.9876091 C12.7661303,11.9876091 12.4718572,12.2854886 12.4718572,12.6528898 C12.4718572,13.0202911 12.7661303,13.3181705 13.1290836,13.3181705 L18.0727407,13.3181705 C18.435694,13.3181705 18.7299671,13.0202911 18.7299671,12.6528898 C18.7299671,12.2854886 18.435694,11.9876091 18.0727407,11.9876091 L17.3688512,11.9876091 L18.8758714,10.4621206 C19.1197845,10.190104 19.0998213,9.76931393 18.8310978,9.52232848 Z" id="Shape"></path>
                            <path d="M26.1236822,21.5676507 C25.3221124,19.5274012 23.92641,17.7822869 22.1218305,16.5640748 L20.0627402,15.1809563 C23.6266326,12.050395 24.0087276,6.58802495 20.9160665,2.98045738 C17.8234054,-0.627110187 12.4271658,-1.01388773 8.86327335,2.1166736 C5.29938093,5.24723493 4.91728592,10.709605 8.00994699,14.3171726 C8.53786411,14.9330561 9.14924899,15.4701871 9.82578144,15.9127651 L8.93129628,16.5547609 C5.39508953,19.1005405 2.47256795,22.4219543 0.38209501,26.271185 C0.136456635,26.7235759 0.00722949062,27.2312682 0.00616149769,27.7474428 L0.00616149769,28.2357588 C0.00410766512,29.0429106 0.3184262,29.8178794 0.880272636,30.3906029 C1.43834002,30.9590852 2.19694362,31.2793347 2.98865499,31.2807484 L5.92119928,31.2807484 L5.92119928,39.2641164 C5.92119928,39.6315177 6.21547241,39.9293971 6.5784257,39.9293971 C6.94137899,39.9293971 7.23565212,39.6315177 7.23565212,39.2641164 L7.23565212,31.2807484 L13.1592338,31.2807484 C14.59552,31.2854886 15.7636578,30.1106861 15.7683406,28.6567983 C15.7688335,28.515842 15.7580714,28.3749688 15.7362186,28.2357588 L16.6615934,26.9970062 C18.6771426,24.3231601 20.2486531,21.334553 21.3140993,18.1487734 C21.3679918,17.9844491 21.4126832,17.8447401 21.452774,17.716341 C23.0090862,18.783368 24.2129607,20.2989605 24.9084705,22.0666112 C25.3930929,23.2821622 25.6408672,24.5811227 25.6379919,25.8919751 L25.6379919,39.2641164 C25.6379919,39.6315177 25.932265,39.9293971 26.2952183,39.9293971 C26.6581716,39.9293971 26.9524447,39.6315177 26.9524447,39.2641164 L26.9524447,25.8919751 C26.9549093,24.4098129 26.6734521,22.941289 26.1236822,21.5676507 Z M2.98865499,29.9501871 C2.54872406,29.9490229 2.12727761,29.7707277 1.81747751,29.454553 C1.49864054,29.1311435 1.31987496,28.6926403 1.32061434,28.2357588 L1.32061434,27.7474428 C1.32053218,27.4553846 1.3931557,27.1680665 1.53158402,26.9118503 C2.75977589,24.6527235 4.29168852,22.5769647 6.0835342,20.7440333 L6.69278309,25.9585031 L4.60674644,25.9585031 C4.24379315,25.9585031 3.94952002,26.2563825 3.94952002,26.6237838 C3.94952002,26.991185 4.24379315,27.2890644 4.60674644,27.2890644 L6.84131627,27.2890644 L7.15021268,29.9501871 L2.98865499,29.9501871 Z M17.4226616,1.98844075 L13.0264741,3.86120582 L10.4711778,2.56790021 C12.5342115,1.17313929 15.1620492,0.954095634 17.4226616,1.98844075 Z M9.35586455,3.49130977 L11.4307284,4.54178794 L7.69111003,6.13313929 C8.05159872,5.14137214 8.61944234,4.24024948 9.35586455,3.49130977 Z M7.30137476,7.74577963 L18.8238684,2.83467775 C19.2177113,3.13654886 19.5802538,3.47825364 19.905663,3.85455301 L7.46568136,10.4508108 C7.23491274,9.56898129 7.17904849,8.64956341 7.30137476,7.74577963 Z M8.24038701,12.3633264 C8.11921089,12.1550936 8.00830393,11.9408732 7.9080769,11.7214137 L20.6839013,4.9435343 C22.7079943,8.42178794 21.5632702,12.9024532 18.1271262,14.9514345 C14.6909,17.0003326 10.2644801,15.8416632 8.24038701,12.3633264 Z M8.47978173,29.9501871 L7.27640016,19.5930977 C7.76274771,19.1513514 8.26881205,18.7348857 8.78473479,18.3290644 L11.6541853,29.9501871 L8.47978173,29.9501871 Z M14.0865803,29.5623285 C13.8418456,29.8113929 13.5088783,29.9511019 13.1618627,29.9501871 L13.0093862,29.9501871 L12.3521598,27.2890644 L13.1454321,27.2890644 C13.5064137,27.2914761 13.8508003,27.4428274 14.0990676,27.7081913 C14.5910837,28.2278586 14.5854973,29.0493971 14.0865803,29.5623285 Z M20.073913,17.7256549 C19.0522545,20.775052 17.5465488,23.6355094 15.6159462,26.1946778 L15.1105391,26.8712682 C15.0803067,26.8373389 15.0586182,26.7980873 15.0270713,26.7648233 C14.5325084,26.2508108 13.8542508,25.9601663 13.1454321,25.9585031 L12.0235466,25.9585031 L9.93028044,17.4701871 L11.1211747,16.6159667 C13.6657089,17.7183368 16.5812475,17.4963825 18.9342824,16.0212058 L20.3144579,16.9446154 C20.2691093,17.1109356 20.1961571,17.3557588 20.073913,17.7256549 Z" id="Shape"></path>
                        </g>
                    </g>
                </g>
            </g>
        </g>
    </g>
</svg>