<?xml version="1.0" encoding="UTF-8"?>
<svg width="21px" height="30px" viewBox="0 0 21 30" version="1.1" xmlns="http://www.w3.org/2000/svg" xmlns:xlink="http://www.w3.org/1999/xlink">
    <!-- Generator: Sketch 51.3 (57544) - http://www.bohemiancoding.com/sketch -->
    <title>003-wounded</title>
    <desc>Created with Sketch.</desc>
    <defs>
        <linearGradient x1="50%" y1="-2.48949813e-15%" x2="50%" y2="100%" id="linearGradient-1">
            <stop stop-color="#4A6180" offset="0%"></stop>
            <stop stop-color="#243249" offset="100%"></stop>
        </linearGradient>
    </defs>
    <g id="Mobile" stroke="none" stroke-width="1" fill="none" fill-rule="evenodd">
        <g id="About_Mobile" transform="translate(-52.000000, -1066.000000)" fill="url(#linearGradient-1)" fill-rule="nonzero">
            <g id="about_add" transform="translate(49.000000, 1005.000000)">
                <g id="Group-5">
                    <g id="Group-8" transform="translate(3.000000, 61.000000)">
                        <g id="003-wounded">
                            <path d="M16.7638948,18.2389397 C16.4916799,18.2389397 16.270975,18.4623493 16.270975,18.7379002 L16.270975,29.4480873 C16.270975,29.7236383 16.4916799,29.9470478 16.7638948,29.9470478 C17.0361098,29.9470478 17.2568146,29.7236383 17.2568146,29.4480873 L17.2568146,18.7379002 C17.2568146,18.4622869 17.0361714,18.2389397 16.7638948,18.2389397 Z" id="Shape"></path>
                            <path d="M14.1233234,7.14174636 C13.9356442,6.96923077 13.649381,6.96898129 13.4613937,7.14106029 L11.6326612,8.99070686 L9.84681268,8.99070686 C9.57459772,8.99070686 9.35389287,9.21411642 9.35389287,9.48966736 C9.35389287,9.7652183 9.57459772,9.98862786 9.84681268,9.98862786 L13.5545555,9.98862786 C13.8267705,9.98862786 14.0474753,9.7652183 14.0474753,9.48966736 C14.0474753,9.21411642 13.8267705,8.99070686 13.5545555,8.99070686 L13.0266384,8.99070686 L14.1569035,7.84659044 C14.3398384,7.64257796 14.324866,7.32698545 14.1233234,7.14174636 Z" id="Shape"></path>
                            <path d="M19.5927616,16.175738 C18.9915843,14.6455509 17.9448075,13.3367152 16.5913729,12.4230561 L15.0470551,11.3857173 C17.7199744,9.03779626 18.0065457,4.94101871 15.6870499,2.23534304 C13.3675541,-0.47033264 9.32037432,-0.7604158 6.64745501,1.5875052 C3.9745357,3.9354262 3.68796444,8.03220374 6.00746024,10.7378794 C6.40339809,11.1997921 6.86193674,11.6026403 7.36933608,11.9345738 L6.69847221,12.4160707 C4.04631715,14.3254054 1.85442596,16.8164657 0.286571257,19.7033888 C0.102342477,20.0426819 0.00542211796,20.4234511 0.00462112327,20.8105821 L0.00462112327,21.1768191 C0.00308074884,21.782183 0.23881965,22.3634096 0.660204477,22.7929522 C1.07875502,23.2193139 1.64770771,23.459501 2.24149124,23.4605613 L4.44089946,23.4605613 L4.44089946,29.4480873 C4.44089946,29.7236383 4.6616043,29.9470478 4.93381927,29.9470478 C5.20603424,29.9470478 5.42673909,29.7236383 5.42673909,29.4480873 L5.42673909,23.4605613 L9.86942538,23.4605613 C10.94664,23.4641164 11.8227434,22.5830146 11.8262554,21.4925988 C11.8266251,21.3868815 11.8185536,21.2812266 11.802164,21.1768191 L12.4961951,20.2477547 C14.0078569,18.2423701 15.1864898,16.0009148 15.9855744,13.61158 C16.0259939,13.4883368 16.0595124,13.3835551 16.0895805,13.2872557 C17.2568146,14.087526 18.1597205,15.2242204 18.6813529,16.5499584 C19.0448197,17.4616216 19.2306504,18.435842 19.2284939,19.4189813 L19.2284939,29.4480873 C19.2284939,29.7236383 19.4491988,29.9470478 19.7214137,29.9470478 C19.9936287,29.9470478 20.2143335,29.7236383 20.2143335,29.4480873 L20.2143335,19.4189813 C20.216182,18.3073597 20.0050891,17.2059667 19.5927616,16.175738 Z M2.24149124,22.4626403 C1.91154304,22.4617672 1.59545821,22.3280457 1.36310813,22.0909148 C1.12398041,21.8483576 0.989906218,21.5194802 0.990460753,21.1768191 L0.990460753,20.8105821 C0.990399138,20.5915385 1.04486678,20.3760499 1.14868801,20.1838877 C2.06983192,18.4895426 3.21876639,16.9327235 4.56265065,15.5580249 L5.01958732,19.4688773 L3.45505983,19.4688773 C3.18284486,19.4688773 2.96214001,19.6922869 2.96214001,19.9678378 C2.96214001,20.2433888 3.18284486,20.4667983 3.45505983,20.4667983 L5.1309872,20.4667983 L5.36265951,22.4626403 L2.24149124,22.4626403 Z M13.0669962,1.49133056 L9.76985558,2.89590437 L7.85338334,1.92592516 C9.40065864,0.87985447 11.3715369,0.715571726 13.0669962,1.49133056 Z M7.01689841,2.61848233 L8.57304627,3.40634096 L5.76833252,4.59985447 C6.03869904,3.85602911 6.46458176,3.18018711 7.01689841,2.61848233 Z M5.47603107,5.80933472 L14.1179013,2.12600832 C14.4132835,2.35241164 14.6851904,2.60869023 14.9292473,2.89091476 L5.59926102,7.83810811 C5.42618455,7.17673597 5.38428637,6.48717256 5.47603107,5.80933472 Z M6.18029025,9.2724948 C6.08940816,9.11632017 6.00622795,8.95565489 5.93105767,8.79106029 L15.512926,3.70765073 C17.0309958,6.31634096 16.1724527,9.67683992 13.5953446,11.2135759 C11.018175,12.7502495 7.69836005,11.8812474 6.18029025,9.2724948 Z M6.3598363,22.4626403 L5.45730012,14.6948233 C5.82206078,14.3635135 6.20160904,14.0511642 6.58855109,13.7467983 L8.740639,22.4626403 L6.3598363,22.4626403 Z M10.5649352,22.1717464 C10.3813842,22.3585447 10.1316587,22.4633264 9.87139706,22.4626403 L9.75703966,22.4626403 L9.26411985,20.4667983 L9.85907406,20.4667983 C10.1298103,20.4686071 10.3881003,20.5821206 10.5743007,20.7811435 C10.9433128,21.170894 10.939123,21.7870478 10.5649352,22.1717464 Z M15.0554348,13.2942412 C14.2891909,15.581289 13.1599116,17.726632 11.7119596,19.6460083 L11.3329043,20.1534511 C11.31023,20.1280042 11.2939636,20.0985655 11.2703035,20.0736175 C10.8993813,19.6881081 10.3906881,19.4701247 9.85907406,19.4688773 L9.01765994,19.4688773 L7.44771033,13.1026403 L8.34088103,12.4619751 C10.2492817,13.2887526 12.4359356,13.1222869 14.2007118,12.0159044 L15.2358434,12.7084615 C15.2018319,12.8332017 15.1471178,13.0168191 15.0554348,13.2942412 Z" id="Shape"></path>
                        </g>
                    </g>
                </g>
            </g>
        </g>
    </g>
</svg>