<?xml version="1.0" encoding="utf-8"?>
<!-- Generator: Adobe Illustrator 17.0.0, SVG Export Plug-In . SVG Version: 6.00 Build 0)  -->
<!DOCTYPE svg PUBLIC "-//W3C//DTD SVG 1.1//EN" "http://www.w3.org/Graphics/SVG/1.1/DTD/svg11.dtd">
<svg version="1.1" id="Layer_1" xmlns="http://www.w3.org/2000/svg" xmlns:xlink="http://www.w3.org/1999/xlink" x="0px" y="0px"
	 width="18px" height="202px" viewBox="0 0 18 202" enable-background="new 0 0 18 202" xml:space="preserve">
<title>arrow_down</title>
<desc>Created with Sketch.</desc>
<polygon opacity="0.4" fill="#FFFFFF" enable-background="new    " points="5,193 5,101.5 5,101 4,101 4,101.5 4,193 0,193 4.5,202 
	9,193 "/>
<polygon opacity="0.4" fill="#FFFFFF" enable-background="new    " points="4,9 4,100.5 4,101 5,101 5,100.5 5,9 9,9 4.5,0 0,9 "/>
<polygon opacity="0.8" fill="#FFFFFF" enable-background="new    " points="14,193 14,101.5 14,101 13,101 13,101.5 13,193 9,193 
	13.5,202 18,193 "/>
<polygon opacity="0.8" fill="#FFFFFF" enable-background="new    " points="13,9 13,100.5 13,101 14,101 14,100.5 14,9 18,9 13.5,0 
	9,9 "/>
</svg>
