<svg width="15" height="14" xmlns="http://www.w3.org/2000/svg"><path d="M.332 0v14h14V0h-14zm11.846 3.635a.107.107 0 0 1-.107.107h-.3a.268.268 0 0 0-.248.167L8.79 10.614l-1.376-3.09-1.473 3.09-2.818-6.707a.269.269 0 0 0-.248-.165h-.282a.107.107 0 0 1-.107-.107v-.25H4.92l-.007.253a.107.107 0 0 1-.107.104H4.4a.215.215 0 0 0-.2.294L6.18 9.04l1-2.168-1.265-2.968a.269.269 0 0 0-.247-.163h-.196a.107.107 0 0 1-.108-.107v-.25h1.83v.25a.107.107 0 0 1-.108.107.215.215 0 0 0-.197.3l.747 1.74.763-1.739a.215.215 0 0 0-.197-.3h-.286a.107.107 0 0 1-.107-.108v-.25h1.916v.25a.107.107 0 0 1-.107.107h-.32a.267.267 0 0 0-.242.155l-1.18 2.52 1.101 2.587 1.926-4.97a.215.215 0 0 0-.2-.292h-.477a.107.107 0 0 1-.107-.107v-.25h2.06v.25z" fill="#243249" opacity=".6"/></svg>