<svg width="15" height="14" xmlns="http://www.w3.org/2000/svg"><g fill="#243249" opacity=".6"><path d="M.332 0v14h14V0h-14zm11.677 9.291c-.12.515-.54.896-1.048.953-1.202.134-2.418.135-3.63.134-1.21 0-2.427 0-3.629-.134a1.224 1.224 0 0 1-1.047-.953c-.17-.734-.17-1.535-.17-2.291s.003-1.557.172-2.29c.118-.517.54-.897 1.047-.953 1.201-.135 2.418-.135 3.63-.135 1.21 0 2.427 0 3.628.135.508.056.93.436 1.048.952.17.734.168 1.535.168 2.291s0 1.557-.17 2.291z"/><path d="M6.081 8.505l3.081-1.598-3.08-1.608v3.206z"/></g></svg>