<svg width="15" height="14" xmlns="http://www.w3.org/2000/svg"><g fill="#243249" opacity=".6"><path d="M.332 0v13.884h14V0h-14zm11.84 3.072l-1.645 7.847a.264.264 0 0 1-.412.157L7.87 9.46a.374.374 0 0 0-.453.012L6.172 10.48a.264.264 0 0 1-.417-.125L4.89 7.597 2.657 6.77a.26.26 0 0 1-.003-.488l9.166-3.506a.262.262 0 0 1 .352.296z"/><path d="M9.98 4.491L5.615 7.157a.434.434 0 0 0-.192.49l.472 1.645c.034.116.204.104.22-.016l.123-.902a.739.739 0 0 1 .232-.443l3.602-3.32c.067-.062-.014-.168-.092-.12z"/></g></svg>