<svg width="15" height="14" xmlns="http://www.w3.org/2000/svg"><g fill="#243249" opacity=".6"><path d="M9.733 3.21H4.93c-.766 0-1.39.623-1.39 1.39v4.8c0 .767.624 1.391 1.39 1.391h4.802c.766 0 1.39-.624 1.39-1.39V4.599c0-.766-.624-1.39-1.39-1.39zM7.332 9.495A2.499 2.499 0 0 1 4.836 7a2.499 2.499 0 0 1 2.496-2.496A2.499 2.499 0 0 1 9.828 7a2.499 2.499 0 0 1-2.496 2.496zM9.908 5.02a.591.591 0 1 1 .001-1.182.591.591 0 0 1 0 1.182z"/><path d="M7.332 5.559c-.795 0-1.442.646-1.442 1.44a1.442 1.442 0 1 0 1.442-1.44z"/><path d="M.332 0v14h14V0h-14zm11.845 9.4a2.447 2.447 0 0 1-2.444 2.446H4.93A2.447 2.447 0 0 1 2.486 9.4V4.599a2.447 2.447 0 0 1 2.445-2.445h4.802A2.447 2.447 0 0 1 12.177 4.6v4.802z"/></g></svg>