<svg xmlns="http://www.w3.org/2000/svg" width="512" height="512"><path opacity=".8" fill="#FFF" d="M290.729 256L504.832 41.897c9.591-9.591 9.591-25.138 0-34.729s-25.138-9.591-34.729 0L256 221.271 41.897 7.201c-9.591-9.591-25.138-9.591-34.729 0s-9.591 25.138 0 34.729l214.103 214.103-214.07 214.07c-9.591 9.591-9.591 25.138 0 34.729 4.812 4.779 11.064 7.201 17.348 7.201s12.569-2.389 17.348-7.201L256 290.729l214.103 214.103c4.812 4.779 11.064 7.201 17.348 7.201 6.285 0 12.569-2.389 17.348-7.201 9.591-9.591 9.591-25.138 0-34.729L290.729 256z"/></svg>