<svg xmlns="http://www.w3.org/2000/svg" width="512" height="394.34"><path opacity=".8" fill="#FFF" d="M491.318 176.488H70.614L211.795 35.306c8.077-8.077 8.077-21.172 0-29.249-8.077-8.076-21.172-8.076-29.249 0L6.058 182.545c-.027.027-.05.058-.077.085-.451.456-.883.932-1.291 1.428-.204.248-.381.509-.571.764-.213.286-.435.565-.634.862-.2.298-.373.608-.556.914-.163.273-.335.54-.485.821-.166.31-.306.629-.455.945-.14.296-.287.587-.413.89-.126.306-.229.618-.34.928-.117.327-.243.649-.344.983-.093.309-.162.622-.24.934-.086.342-.182.68-.251 1.029-.071.356-.112.716-.164 1.075-.044.309-.103.613-.134.926a20.71 20.71 0 0 0-.099 1.96c0 .029-.004.054-.004.081 0 .033.005.065.005.098.003.647.034 1.294.098 1.939.031.321.091.633.137.95.051.35.091.702.16 1.05.071.359.169.707.258 1.059.076.301.142.604.232.903.105.346.234.681.357 1.02.107.297.205.597.326.89.132.319.287.625.434.935.142.3.275.604.433.898.161.302.345.589.521.882.171.286.332.575.519.854.22.329.464.64.702.955.168.223.323.453.502.671.437.532.897 1.044 1.384 1.53l176.478 176.478c4.038 4.039 9.332 6.058 14.625 6.058s10.587-2.019 14.625-6.058c8.077-8.077 8.077-21.172 0-29.249L70.614 217.852h420.704c11.423 0 20.682-9.259 20.682-20.682 0-11.422-9.259-20.682-20.682-20.682z"/></svg>