<svg width="38" height="40" xmlns="http://www.w3.org/2000/svg"><g transform="translate(0 .373)" fill="none"><ellipse fill="#243249" opacity=".604" cx="19" cy="19.627" rx="19" ry="19.627"/><g fill="#FFF" opacity=".803"><path d="M23.57 19.214l-6.287-4.441c-.195-.15-.717-.15-.758.413v8.883c.046.562.577.572.758.413l6.286-4.441a.509.509 0 0 0 0-.827zm-6.073 3.908v-6.989l4.937 3.494-4.937 3.495z"/><path d="M19 7.851c-6.286 0-11.4 5.283-11.4 11.776 0 6.494 5.114 11.777 11.4 11.777 6.286 0 11.4-5.283 11.4-11.777 0-6.493-5.114-11.776-11.4-11.776zm0 22.548c-5.751 0-10.428-4.83-10.428-10.772 0-5.94 4.677-10.771 10.428-10.771 5.751 0 10.428 4.83 10.428 10.771C29.428 25.57 24.75 30.4 19 30.4z"/></g></g></svg>