<svg width="80" height="80" xmlns="http://www.w3.org/2000/svg"><g fill="none"><circle fill="#243249" opacity=".604" cx="40" cy="40" r="40"/><g fill="#FFF" opacity=".803"><path d="M49.62 39.158l-13.235-9.052c-.411-.304-1.508-.304-1.596.843V49.05a1.016 1.016 0 0 0 1.596.843l13.235-9.052c.342-.205.813-1.048 0-1.684zm-12.784 7.964V32.878L47.229 40l-10.393 7.122z"/><path d="M40 16c-13.234 0-24 10.766-24 24s10.766 24 24 24 24-10.766 24-24-10.766-24-24-24zm0 45.953c-12.108 0-21.953-9.845-21.953-21.953 0-12.108 9.845-21.953 21.953-21.953 12.108 0 21.953 9.845 21.953 21.953 0 12.108-9.845 21.953-21.953 21.953z"/></g></g></svg>