<?xml version="1.0" encoding="UTF-8"?>
<svg width="80px" height="80px" viewBox="0 0 80 80" version="1.1" xmlns="http://www.w3.org/2000/svg" xmlns:xlink="http://www.w3.org/1999/xlink">
    <!-- Generator: Sketch 51.3 (57544) - http://www.bohemiancoding.com/sketch -->
    <title>paly</title>
    <desc>Created with Sketch.</desc>
    <defs></defs>
    <g id="Tablet" stroke="none" stroke-width="1" fill="none" fill-rule="evenodd">
        <g id="About_Tablet" transform="translate(-344.000000, -299.000000)" fill-rule="nonzero">
            <g id="video" transform="translate(0.000000, 130.000000)">
                <g id="paly" transform="translate(344.000000, 169.194313)">
                    <ellipse id="Oval-2" fill="#243249" opacity="0.604296875" cx="40" cy="39.8104265" rx="40" ry="39.8104265"></ellipse>
                    <g id="play-button-(2)" transform="translate(16.000000, 15.924171)" fill="#FFFFFF" opacity="0.803236607">
                        <path d="M33.6195918,23.0477996 L20.3853061,14.0392688 C19.9738776,13.7370345 18.8767347,13.7370345 18.7885714,14.8777251 L18.7885714,32.8947867 C18.8865306,34.0354773 20.0032653,34.0549763 20.3853061,33.7332431 L33.6195918,24.7247123 C33.962449,24.5199729 34.4326531,23.6815166 33.6195918,23.0477996 Z M20.8359184,30.9741368 L20.8359184,16.7983751 L31.2293878,23.8862559 L20.8359184,30.9741368 Z" id="Shape"></path>
                        <path d="M24,0 C10.7657143,0 0,10.7146919 0,23.8862559 C0,37.0578199 10.7657143,47.7725118 24,47.7725118 C37.2342857,47.7725118 48,37.0578199 48,23.8862559 C48,10.7146919 37.2342857,0 24,0 Z M24,45.734868 C11.8922449,45.734868 2.04734694,35.9366283 2.04734694,23.8862559 C2.04734694,11.8358835 11.8922449,2.03764387 24,2.03764387 C36.1077551,2.03764387 45.9526531,11.8358835 45.9526531,23.8862559 C45.9526531,35.9366283 36.1077551,45.734868 24,45.734868 Z" id="Shape"></path>
                    </g>
                </g>
            </g>
        </g>
    </g>
</svg>