<?xml version="1.0" encoding="utf-8"?>
<!-- Generator: Adobe Illustrator 17.0.0, SVG Export Plug-In . SVG Version: 6.00 Build 0)  -->
<!DOCTYPE svg PUBLIC "-//W3C//DTD SVG 1.1//EN" "http://www.w3.org/Graphics/SVG/1.1/DTD/svg11.dtd">
<svg version="1.1" id="Layer_1" xmlns="http://www.w3.org/2000/svg" xmlns:xlink="http://www.w3.org/1999/xlink" x="0px" y="0px"
	 width="9.125px" height="101.119px" viewBox="0.875 1.253 9.125 101.119" enable-background="new 0.875 1.253 9.125 101.119"
	 xml:space="preserve">
<title>Line 2</title>
<desc>Created with Sketch.</desc>
<g opacity="1">
	<polygon opacity="0.4" fill="#D8D8D8" enable-background="new    " points="5.872,31.753 5.872,21.753 5.872,21.253 4.872,21.253 
		4.872,21.753 4.872,31.753 4.872,32.253 5.872,32.253 	"/>
	<polygon opacity="0.4" fill="#D8D8D8" enable-background="new    " points="5.872,51.753 5.872,41.753 5.872,41.253 4.872,41.253 
		4.872,41.753 4.872,51.753 4.872,52.253 5.872,52.253 	"/>
	<polygon opacity="0.4" fill="#D8D8D8" enable-background="new    " points="5.872,11.753 5.872,1.753 5.872,1.253 4.872,1.253 
		4.872,1.753 4.872,11.753 4.872,12.253 5.872,12.253 	"/>
	<polygon opacity="0.4" fill="#D8D8D8" enable-background="new    " points="5.872,91.753 5.872,81.753 5.872,81.253 4.872,81.253 
		4.872,81.753 4.872,91.753 4.872,92.253 5.872,92.253 	"/>
	<polygon opacity="0.4" fill="#D8D8D8" enable-background="new    " points="5.872,71.753 5.872,61.753 5.872,61.253 4.872,61.253 
		4.872,61.753 4.872,71.753 4.872,72.253 5.872,72.253 	"/>
	<polygon opacity="0.4" fill="#D8D8D8" enable-background="new    " points="0.872,93.372 5.372,102.372 9.872,93.372 	"/>
</g>
</svg>
