<svg xmlns="http://www.w3.org/2000/svg" xmlns:xlink="http://www.w3.org/1999/xlink" width="10" height="16" viewBox="0 0 10 16"><defs><path id="j9tta" d="M645.85 18h-2.06c-2.3 0-3.8 1.53-3.8 3.9v1.8h-2.07a.32.32 0 0 0-.32.32v2.61c0 .18.14.32.32.32H640v6.58c0 .18.15.33.32.33h2.7c.18 0 .32-.15.32-.33v-6.58h2.42c.18 0 .32-.14.32-.32v-2.6a.32.32 0 0 0-.32-.33h-2.42v-1.52c0-.74.18-1.1 1.13-1.1l1.39-.01c.18 0 .32-.14.32-.32v-2.42a.32.32 0 0 0-.32-.33z"/></defs><g><g opacity=".59" transform="translate(-637 -18)"><use fill="#fff" xlink:href="#j9tta"/></g></g></svg>