<svg xmlns="http://www.w3.org/2000/svg" xmlns:xlink="http://www.w3.org/1999/xlink" width="12" height="11" viewBox="0 0 12 11"><defs><path id="ndnga" d="M231.87 453.07l5.4-3.3c.1-.05.2.08.11.15l-4.45 4.1a.91.91 0 0 0-.29.55l-.15 1.12c-.02.15-.23.16-.27.02l-.58-2.03a.54.54 0 0 1 .23-.61zm-3.66-.48l2.77 1.02 1.07 3.4c.07.21.34.3.51.15l1.55-1.24c.16-.13.39-.14.56-.02l2.78 2c.19.13.46.03.5-.2l2.04-9.67a.32.32 0 0 0-.43-.37L228.2 452c-.28.1-.28.5 0 .6z"/></defs><g><g opacity=".59" transform="translate(-228 -447)"><use fill="#243249" xlink:href="#ndnga"/></g></g></svg>