<svg xmlns="http://www.w3.org/2000/svg" xmlns:xlink="http://www.w3.org/1999/xlink" width="13" height="9" viewBox="0 0 13 9"><defs><path id="v1jea" d="M201.37 448.63h-2.52a.3.3 0 0 0-.3.3v.38c0 .16.14.3.3.3h.64l-1.92 4.98-1.04-2.3 1.37-2.68h.28a.3.3 0 0 0 .3-.3v-.38a.3.3 0 0 0-.3-.3h-1.86a.3.3 0 0 0-.3.3v.38c0 .16.13.3.3.3h.26l-.63 1.39s-.59-1.3-.62-1.4h.06a.3.3 0 0 0 .3-.3v-.37a.3.3 0 0 0-.3-.3h-1.98a.3.3 0 0 0-.3.3v.38c0 .16.13.3.3.3h.27c.05.07 1.36 2.9 1.46 3.14l-.86 1.85a169.03 169.03 0 0 1-2.09-5h.55a.3.3 0 0 0 .3-.3v-.37a.3.3 0 0 0-.3-.3H190a.3.3 0 0 0-.3.3v.38c0 .16.14.3.3.3h.48c.03.03 1.1 2.59 1.61 3.79.48 1.1.97 2.25 1.3 3.07.05.14.22.55.6.55.32 0 .52-.3.64-.54.26-.52.72-1.55 1.09-2.36.48 1.14.81 1.93 1 2.34.06.13.24.55.61.55.36 0 .56-.4.62-.53v-.01c.66-1.57 2.56-6.3 2.58-6.35v-.01a1 1 0 0 1 .27-.43.46.46 0 0 1 .13-.07h.45a.3.3 0 0 0 .3-.3v-.38a.3.3 0 0 0-.3-.3z"/></defs><g><g opacity=".59" transform="translate(-189 -448)"><use fill="#243249" xlink:href="#v1jea"/></g></g></svg>