<svg xmlns="http://www.w3.org/2000/svg" xmlns:xlink="http://www.w3.org/1999/xlink" width="7" height="13"><defs><path id="a" d="M124.67 446.65h-1.58c-1.79 0-2.94 1.17-2.94 2.97V451h-1.6a.25.25 0 0 0-.24.25v1.98c0 .14.11.25.25.25h1.6v5.01c0 .14.1.25.24.25h2.08c.14 0 .25-.11.25-.25v-5h1.87c.13 0 .25-.12.25-.26v-1.98a.25.25 0 0 0-.08-.18.25.25 0 0 0-.17-.07h-1.87v-1.16c0-.56.14-.84.87-.84h1.07c.14 0 .25-.11.25-.25v-1.84a.25.25 0 0 0-.25-.25z"/></defs><use fill="#243249" xlink:href="#a" opacity=".59" transform="translate(-118 -446)"/></svg>