<svg xmlns="http://www.w3.org/2000/svg" xmlns:xlink="http://www.w3.org/1999/xlink" width="13" height="13"><defs><path id="a" d="M162.25 454.8c0 1.43-1.18 2.59-2.63 2.59h-4.5a2.61 2.61 0 0 1-2.63-2.6v-4.44c0-1.43 1.18-2.59 2.63-2.59h4.5a2.61 2.61 0 0 1 2.63 2.6zm-2.63-8.15h-4.5a3.73 3.73 0 0 0-3.75 3.7v4.45c0 2.04 1.68 3.7 3.75 3.7h4.5a3.73 3.73 0 0 0 3.75-3.7v-4.45c0-2.04-1.68-3.7-3.75-3.7z"/><path id="b" d="M157.37 454.46a1.87 1.87 0 0 1-1.88-1.85c0-1.02.85-1.85 1.88-1.85 1.03 0 1.88.83 1.88 1.85s-.85 1.85-1.88 1.85zm0-4.81c-1.66 0-3 1.33-3 2.96a2.98 2.98 0 0 0 3 2.97c1.66 0 3-1.33 3-2.97a2.98 2.98 0 0 0-3-2.96z"/></defs><use fill="#243249" xlink:href="#a" opacity=".59" transform="translate(-151 -446)"/><use fill="#243249" xlink:href="#b" opacity=".59" transform="translate(-151 -446)"/></svg>