<svg xmlns="http://www.w3.org/2000/svg" xmlns:xlink="http://www.w3.org/1999/xlink" width="17" height="16"><defs><path id="a" d="M686.32 29a3.5 3.5 0 0 1-3.5 3.5h-6a3.5 3.5 0 0 1-3.5-3.5v-6a3.5 3.5 0 0 1 3.5-3.5h6a3.5 3.5 0 0 1 3.5 3.5zm-3.5-11h-6a5 5 0 0 0-5 5v6a5 5 0 0 0 5 5h6a5 5 0 0 0 5-5v-6a5 5 0 0 0-5-5z"/><path id="b" d="M679.82 28.5a2.5 2.5 0 1 1 0-5 2.5 2.5 0 0 1 0 5zm0-6.5a4 4 0 1 0 0 8 4 4 0 0 0 0-8z"/></defs><use fill="#fff" xlink:href="#a" opacity=".59" transform="translate(-671 -18)"/><use fill="#fff" xlink:href="#b" opacity=".59" transform="translate(-671 -18)"/></svg>