<svg xmlns="http://www.w3.org/2000/svg" xmlns:xlink="http://www.w3.org/1999/xlink" width="16" height="14"><defs><path id="a" d="M758.17 26.34l7.2-4.43c.13-.08.26.1.15.2l-5.94 5.51c-.21.2-.35.46-.39.74l-.2 1.5c-.02.2-.3.22-.36.03l-.78-2.74a.72.72 0 0 1 .32-.81zm-4.89-.64l3.69 1.38 1.43 4.58c.09.3.45.4.69.21l2.05-1.67a.61.61 0 0 1 .75-.02l3.7 2.69c.26.18.62.04.69-.27l2.71-13.06a.43.43 0 0 0-.58-.49l-15.13 5.84a.43.43 0 0 0 0 .81z"/></defs><use fill="#fff" xlink:href="#a" opacity=".59" transform="translate(-753 -19)"/></svg>