<svg xmlns="http://www.w3.org/2000/svg" xmlns:xlink="http://www.w3.org/1999/xlink" width="17" height="12"><defs><path id="a" d="M727.98 20.04h-3.35a.4.4 0 0 0-.4.4v.51c0 .23.18.4.4.4h.85l-2.57 6.74-1.38-3.12 1.82-3.61h.38a.4.4 0 0 0 .41-.4v-.51a.4.4 0 0 0-.4-.41h-2.5a.4.4 0 0 0-.4.4v.51c0 .23.18.4.4.4h.35c-.01.06-.83 1.88-.83 1.88l-.84-1.87h.1a.4.4 0 0 0 .4-.4v-.51a.4.4 0 0 0-.4-.41h-2.65a.4.4 0 0 0-.4.4v.51c0 .23.18.4.4.4h.36l1.94 4.26-1.13 2.49a229.72 229.72 0 0 1-2.8-6.74h.74a.4.4 0 0 0 .4-.4v-.51a.4.4 0 0 0-.4-.41h-3.66a.4.4 0 0 0-.41.4v.51c0 .23.18.4.4.4h.64c.04.05 1.46 3.5 2.15 5.12a146.28 146.28 0 0 1 1.72 4.16c.08.18.3.74.8.74.43 0 .7-.42.86-.73v-.01c.35-.7.97-2.08 1.46-3.18.63 1.54 1.08 2.6 1.33 3.16.08.18.33.74.82.74.48 0 .74-.54.82-.71v-.02c.87-2.12 3.41-8.5 3.44-8.57v-.01c.1-.26.21-.44.36-.58l.17-.1h.6a.4.4 0 0 0 .4-.4v-.51a.4.4 0 0 0-.4-.41z"/></defs><use fill="#fff" xlink:href="#a" opacity=".59" transform="translate(-712 -20)"/></svg>