<svg xmlns="http://www.w3.org/2000/svg" xmlns:xlink="http://www.w3.org/1999/xlink" width="16" height="11"><defs><path id="a" d="M603 28.5v-6l5 3zm9.32-7.44c-.43-.77-.9-.91-1.86-.97-.96-.06-3.37-.09-5.46-.09s-4.5.03-5.46.1c-.95.05-1.42.19-1.86.96-.45.77-.68 2.1-.68 4.44 0 2.33.23 3.67.68 4.43.44.78.9.92 1.86.98.96.06 3.37.09 5.46.09s4.5-.03 5.46-.09 1.43-.2 1.86-.97c.45-.77.68-2.1.68-4.43v-.01c0-2.34-.23-3.67-.68-4.44z"/></defs><use fill="#fff" xlink:href="#a" opacity=".59" transform="translate(-597 -20)"/></svg>