<svg xmlns="http://www.w3.org/2000/svg" xmlns:xlink="http://www.w3.org/1999/xlink" width="12" height="9"><defs><path id="a" d="M84.5 454.94v-4.46l3.75 2.23zm6.99-5.52c-.33-.58-.68-.68-1.4-.72-.72-.05-2.52-.07-4.09-.07-1.57 0-3.37.02-4.1.07-.71.04-1.06.14-1.4.72-.33.57-.5 1.55-.5 3.28 0 1.73.17 2.72.5 3.29.34.57.69.67 1.4.72.73.04 2.53.07 4.1.07 1.57 0 3.37-.03 4.1-.07.71-.05 1.07-.15 1.4-.72.33-.57.5-1.56.5-3.28 0-1.74-.17-2.72-.51-3.3z"/></defs><use fill="#243249" xlink:href="#a" opacity=".59" transform="translate(-80 -448)"/></svg>