<?xml version="1.0" encoding="UTF-8"?>
<svg width="15px" height="14px" viewBox="0 0 15 14" version="1.1" xmlns="http://www.w3.org/2000/svg" xmlns:xlink="http://www.w3.org/1999/xlink">
    <!-- Generator: Sketch 51.3 (57544) - http://www.bohemiancoding.com/sketch -->
    <title>wikipedia</title>
    <desc>Created with Sketch.</desc>
    <defs></defs>
    <g id="Mobile" stroke="none" stroke-width="1" fill="none" fill-rule="evenodd" opacity="0.6">
        <g id="Service_info_Mobile" transform="translate(-189.000000, -1865.000000)" fill="#243249" fill-rule="nonzero">
            <g id="footer" transform="translate(0.000000, 1605.000000)">
                <g id="Group-15" transform="translate(15.331823, 17.000000)">
                    <g id="Group-14" transform="translate(66.000000, 243.000000)">
                        <g id="wikipedia" transform="translate(108.000000, 0.000000)">
                            <path d="M0,0 L0,14 L14,14 L14,0 L0,0 Z M11.8461538,3.63510769 C11.8461538,3.69412308 11.7982154,3.74187692 11.7391692,3.74187692 L11.4396,3.74187692 C11.3304923,3.74187692 11.2320923,3.80803077 11.1909538,3.90923077 L8.45818462,10.6141231 L7.08184615,7.52461538 L5.60923077,10.6140923 L2.79104615,3.90658462 C2.74907692,3.80692308 2.65150769,3.74212308 2.54338462,3.74212308 L2.26089231,3.74212308 C2.20187692,3.74212308 2.15384615,3.69412308 2.15384615,3.63507692 L2.15384615,3.38587692 L4.58913846,3.38587692 L4.58227692,3.63796923 C4.58073846,3.696 4.53326154,3.74212308 4.47529231,3.74212308 L4.06763077,3.74212308 C3.91606154,3.74212308 3.81218462,3.89507692 3.86778462,4.03590769 L5.8464,9.04129231 L6.84707692,6.87252308 L5.58249231,3.90532308 C5.54024615,3.8064 5.44323077,3.74187692 5.33538462,3.74187692 L5.13870769,3.74187692 C5.07969231,3.74187692 5.03166154,3.69412308 5.03166154,3.63510769 L5.03166154,3.38590769 L6.86046154,3.38590769 L6.86046154,3.63510769 C6.86046154,3.69412308 6.81246154,3.74187692 6.75347692,3.74187692 C6.59923077,3.74187692 6.49507692,3.89981538 6.55590769,4.04172308 L7.30323077,5.7824 L8.06627692,4.04332308 C8.12846154,3.90135385 8.02458462,3.74215385 7.86932308,3.74215385 L7.58366154,3.74215385 C7.52436923,3.74215385 7.47661538,3.69415385 7.47661538,3.63510769 L7.47661538,3.38590769 L9.39175385,3.38590769 L9.39175385,3.63510769 C9.39175385,3.69412308 9.344,3.74215385 9.28470769,3.74215385 L8.966,3.74215385 C8.86184615,3.74215385 8.76689231,3.80252308 8.72283077,3.89692308 L7.544,6.41769231 L8.64467692,9.00409231 L10.5704923,4.03356923 C10.624,3.89295385 10.5201231,3.74212308 10.3695692,3.74212308 L9.89353846,3.74212308 C9.83452308,3.74212308 9.78649231,3.69412308 9.78649231,3.63507692 L9.78649231,3.38587692 L11.8461538,3.38587692 L11.8461538,3.63510769 Z" id="Shape"></path>
                        </g>
                    </g>
                </g>
            </g>
        </g>
    </g>
</svg>