<?xml version="1.0" encoding="UTF-8"?>
<svg width="15px" height="14px" viewBox="0 0 15 14" version="1.1" xmlns="http://www.w3.org/2000/svg" xmlns:xlink="http://www.w3.org/1999/xlink">
    <!-- Generator: Sketch 51.3 (57544) - http://www.bohemiancoding.com/sketch -->
    <title>002-instagram</title>
    <desc>Created with Sketch.</desc>
    <defs></defs>
    <g id="Mobile" stroke="none" stroke-width="1" fill="none" fill-rule="evenodd" opacity="0.6">
        <g id="Service_info_Mobile" transform="translate(-153.000000, -1865.000000)" fill="#243249" fill-rule="nonzero">
            <g id="footer" transform="translate(0.000000, 1605.000000)">
                <g id="Group-15" transform="translate(15.331823, 17.000000)">
                    <g id="Group-14" transform="translate(66.000000, 243.000000)">
                        <g id="002-instagram" transform="translate(72.000000, 0.000000)">
                            <path d="M9.40092308,3.20915385 L4.59911538,3.20915385 C3.83276923,3.20915385 3.20915385,3.83273077 3.20915385,4.59911538 L3.20915385,9.40088462 C3.20915385,10.1673846 3.83276923,10.791 4.59911538,10.791 L9.40092308,10.791 C10.1673846,10.791 10.791,10.1673846 10.791,9.40088462 L10.791,4.59911538 C10.791,3.83276923 10.1673846,3.20915385 9.40092308,3.20915385 Z M6.99992308,9.49592308 C5.62380769,9.49592308 4.50407692,8.37619231 4.50407692,6.99992308 C4.50407692,5.62380769 5.62380769,4.50407692 6.99992308,4.50407692 C8.37619231,4.50407692 9.49592308,5.62380769 9.49592308,6.99992308 C9.49592308,8.37619231 8.37619231,9.49592308 6.99992308,9.49592308 Z M9.57623077,5.02019231 C9.25042308,5.02019231 8.9855,4.75526923 8.9855,4.42965385 C8.9855,4.104 9.25042308,3.83907692 9.57623077,3.83907692 C9.90184615,3.83907692 10.1667692,4.104 10.1667692,4.42965385 C10.1667692,4.75530769 9.90184615,5.02019231 9.57623077,5.02019231 Z" id="Shape"></path>
                            <path d="M6.99992308,5.55888462 C6.2055,5.55888462 5.55857692,6.2055 5.55857692,6.99992308 C5.55857692,7.79465385 6.2055,8.44142308 6.99992308,8.44142308 C7.79465385,8.44142308 8.44111538,7.79465385 8.44111538,6.99992308 C8.44111538,6.2055 7.79465385,5.55888462 6.99992308,5.55888462 Z" id="Shape"></path>
                            <path d="M0,0 L0,14 L14,14 L14,0 L0,0 Z M11.8455385,9.40088462 C11.8455385,10.7490769 10.7490769,11.8455385 9.40092308,11.8455385 L4.59911538,11.8455385 C3.25107692,11.8455385 2.15446154,10.7490769 2.15446154,9.40088462 L2.15446154,4.59911538 C2.15446154,3.25107692 3.25107692,2.15446154 4.59911538,2.15446154 L9.40092308,2.15446154 C10.7490769,2.15446154 11.8455385,3.25107692 11.8455385,4.59911538 L11.8455385,9.40088462 Z" id="Shape"></path>
                        </g>
                    </g>
                </g>
            </g>
        </g>
    </g>
</svg>