<?xml version="1.0" encoding="UTF-8"?>
<svg width="15px" height="14px" viewBox="0 0 15 14" version="1.1" xmlns="http://www.w3.org/2000/svg" xmlns:xlink="http://www.w3.org/1999/xlink">
    <!-- Generator: Sketch 51.3 (57544) - http://www.bohemiancoding.com/sketch -->
    <title>004-telegram</title>
    <desc>Created with Sketch.</desc>
    <defs></defs>
    <g id="Mobile" stroke="none" stroke-width="1" fill="none" fill-rule="evenodd" opacity="0.6">
        <g id="Service_info_Mobile" transform="translate(-225.000000, -1865.000000)" fill="#243249" fill-rule="nonzero">
            <g id="footer" transform="translate(0.000000, 1605.000000)">
                <g id="Group-15" transform="translate(15.331823, 17.000000)">
                    <g id="Group-14" transform="translate(66.000000, 243.000000)">
                        <g id="004-telegram" transform="translate(144.000000, 0.000000)">
                            <path d="M0,0 L0,13.8840585 L14,13.8840585 L14,0 L0,0 Z M11.8404308,3.07219122 L10.1955692,10.9185456 C10.1568308,11.1037986 9.93778462,11.1877438 9.78323077,11.0763662 L7.53784615,9.45968201 C7.40153846,9.36151714 7.21566154,9.3667351 7.08516923,9.47225395 L5.84024615,10.4786498 C5.69578462,10.5958252 5.47806154,10.5305243 5.42273846,10.3540595 L4.55830769,7.59705165 L2.32498462,6.77044668 C2.09812308,6.68616587 2.09618462,6.36854133 2.3224,6.28212451 L11.488,2.7755606 C11.6823077,2.7010444 11.8827692,2.86985014 11.8404308,3.07219122 Z" id="Shape"></path>
                            <path d="M9.64821538,4.49108097 L5.28347692,7.1570338 C5.11618462,7.25940966 5.03744615,7.4597673 5.09141538,7.64733941 L5.56332308,9.2917917 C5.59689231,9.40829574 5.76735385,9.39639511 5.78369231,9.27601575 L5.90633846,8.37422327 C5.92950769,8.20444107 6.01113846,8.04793264 6.13778462,7.93109294 L9.73990769,4.61045336 C9.80735385,4.5485091 9.72661538,4.44332591 9.64821538,4.49108097 Z" id="Shape"></path>
                        </g>
                    </g>
                </g>
            </g>
        </g>
    </g>
</svg>