<?xml version="1.0" encoding="UTF-8"?>
<svg width="15px" height="14px" viewBox="0 0 15 14" version="1.1" xmlns="http://www.w3.org/2000/svg" xmlns:xlink="http://www.w3.org/1999/xlink">
    <!-- Generator: Sketch 51.3 (57544) - http://www.bohemiancoding.com/sketch -->
    <title>001-youtube</title>
    <desc>Created with Sketch.</desc>
    <defs></defs>
    <g id="Mobile" stroke="none" stroke-width="1" fill="none" fill-rule="evenodd" opacity="0.6">
        <g id="Service_info_Mobile" transform="translate(-81.000000, -1865.000000)" fill="#243249" fill-rule="nonzero">
            <g id="footer" transform="translate(0.000000, 1605.000000)">
                <g id="Group-15" transform="translate(15.331823, 17.000000)">
                    <g id="Group-14" transform="translate(66.000000, 243.000000)">
                        <g id="001-youtube">
                            <path d="M0,0 L0,14 L14,14 L14,0 L0,0 Z M11.6767077,9.29110769 C11.5579077,9.80649231 11.1363077,10.1870462 10.6288,10.2437231 C9.42744615,10.3776615 8.21110769,10.3785538 6.99950769,10.3776615 C5.7884,10.3785538 4.57206154,10.3776615 3.37033846,10.2437231 C2.86270769,10.1870769 2.44113846,9.80649231 2.32295385,9.29110769 C2.15384615,8.55735385 2.15384615,7.75572308 2.15384615,6.99996923 C2.15384615,6.24421538 2.15584615,5.44295385 2.3248,4.7092 C2.44298462,4.19332308 2.86470769,3.81326154 3.37169231,3.75661538 C4.57353846,3.62230769 5.7904,3.62178462 7.00150769,3.62230769 C8.21249231,3.62181538 9.42895385,3.62230769 10.6306769,3.75661538 C11.1383077,3.81326154 11.5598769,4.19332308 11.6785846,4.7092 C11.8476615,5.44295385 11.8461538,6.24421538 11.8461538,6.99996923 C11.8461538,7.75572308 11.8456615,8.55735385 11.6767077,9.29110769 Z" id="Shape"></path>
                            <path d="M5.74938462,8.50458462 C6.77913846,7.97058462 7.79978462,7.44104615 8.83055385,6.90667692 C7.7968,6.36729231 6.77627692,5.83526154 5.74938462,5.29938462 L5.74938462,8.50458462 Z" id="Shape"></path>
                        </g>
                    </g>
                </g>
            </g>
        </g>
    </g>
</svg>