<?xml version="1.0" encoding="utf-8"?>
<!-- Generator: Adobe Illustrator 17.0.0, SVG Export Plug-In . SVG Version: 6.00 Build 0)  -->
<!DOCTYPE svg PUBLIC "-//W3C//DTD SVG 1.1//EN" "http://www.w3.org/Graphics/SVG/1.1/DTD/svg11.dtd">
<svg version="1.1" id="Layer_1" xmlns="http://www.w3.org/2000/svg" xmlns:xlink="http://www.w3.org/1999/xlink" x="0px" y="0px"
	 width="512px" height="394.34px" viewBox="0 0 512 394.34" enable-background="new 0 0 512 394.34" xml:space="preserve">
<path opacity="0.8" fill="#FFFFFF" d="M20.682,217.852h420.704L300.205,359.034c-8.077,8.077-8.077,21.172,0,29.249
	c8.077,8.076,21.172,8.076,29.249,0l176.488-176.488c0.027-0.027,0.05-0.058,0.077-0.085c0.451-0.456,0.883-0.932,1.291-1.428
	c0.204-0.248,0.381-0.509,0.571-0.764c0.213-0.286,0.435-0.565,0.634-0.862c0.2-0.298,0.373-0.608,0.556-0.914
	c0.163-0.273,0.335-0.54,0.485-0.821c0.166-0.31,0.306-0.629,0.455-0.945c0.14-0.296,0.287-0.587,0.413-0.89
	c0.126-0.306,0.229-0.618,0.34-0.928c0.117-0.327,0.243-0.649,0.344-0.983c0.093-0.309,0.162-0.622,0.24-0.934
	c0.086-0.342,0.182-0.68,0.251-1.029c0.071-0.356,0.112-0.716,0.164-1.075c0.044-0.309,0.103-0.613,0.134-0.926
	c0.064-0.652,0.097-1.306,0.099-1.96c0-0.029,0.004-0.054,0.004-0.081c0-0.033-0.005-0.065-0.005-0.098
	c-0.003-0.647-0.034-1.294-0.098-1.939c-0.031-0.321-0.091-0.633-0.137-0.95c-0.051-0.35-0.091-0.702-0.16-1.05
	c-0.071-0.359-0.169-0.707-0.258-1.059c-0.076-0.301-0.142-0.604-0.232-0.903c-0.105-0.346-0.234-0.681-0.357-1.02
	c-0.107-0.297-0.205-0.597-0.326-0.89c-0.132-0.319-0.287-0.625-0.434-0.935c-0.142-0.3-0.275-0.604-0.433-0.898
	c-0.161-0.302-0.345-0.589-0.521-0.882c-0.171-0.286-0.332-0.575-0.519-0.854c-0.22-0.329-0.464-0.64-0.702-0.955
	c-0.168-0.223-0.323-0.453-0.502-0.671c-0.437-0.532-0.897-1.044-1.384-1.53L329.454,6.058C325.416,2.019,320.122,0,314.829,0
	s-10.587,2.019-14.625,6.058c-8.077,8.077-8.077,21.172,0,29.249l141.182,141.181H20.682C9.259,176.488,0,185.747,0,197.17
	C0,208.592,9.259,217.852,20.682,217.852z"/>
</svg>
