<?xml version="1.0" encoding="utf-8"?>
<!-- Generator: Adobe Illustrator 17.0.0, SVG Export Plug-In . SVG Version: 6.00 Build 0)  -->
<!DOCTYPE svg PUBLIC "-//W3C//DTD SVG 1.1//EN" "http://www.w3.org/Graphics/SVG/1.1/DTD/svg11.dtd">
<svg version="1.1" id="Layer_1" xmlns="http://www.w3.org/2000/svg" xmlns:xlink="http://www.w3.org/1999/xlink" x="0px" y="0px"
	 width="512px" height="512px" viewBox="0 0 512 512" enable-background="new 0 0 512 512" xml:space="preserve">
<path opacity="0.8" fill="#FFFFFF" enable-background="new    " d="M290.729,256L504.832,41.897c9.591-9.591,9.591-25.138,0-34.729
	s-25.138-9.591-34.729,0L256,221.271L41.897,7.201c-9.591-9.591-25.138-9.591-34.729,0s-9.591,25.138,0,34.729l214.103,214.103
	L7.201,470.103c-9.591,9.591-9.591,25.138,0,34.729c4.812,4.779,11.064,7.201,17.348,7.201s12.569-2.389,17.348-7.201L256,290.729
	l214.103,214.103c4.812,4.779,11.064,7.201,17.348,7.201c6.285,0,12.569-2.389,17.348-7.201c9.591-9.591,9.591-25.138,0-34.729
	L290.729,256z"/>
</svg>
