<?xml version="1.0" encoding="UTF-8"?>
<svg width="38px" height="40px" viewBox="0 0 38 40" version="1.1" xmlns="http://www.w3.org/2000/svg" xmlns:xlink="http://www.w3.org/1999/xlink">
    <!-- Generator: Sketch 51.3 (57544) - http://www.bohemiancoding.com/sketch -->
    <title>paly</title>
    <desc>Created with Sketch.</desc>
    <defs></defs>
    <g id="Symbols" stroke="none" stroke-width="1" fill="none" fill-rule="evenodd">
        <g id="Reccomend" transform="translate(-953.000000, -57.000000)" fill-rule="nonzero">
            <g id="video_2">
                <g transform="translate(862.000000, 0.000000)">
                    <g id="paly" transform="translate(91.000000, 57.372549)">
                        <ellipse id="Oval-2" fill="#243249" opacity="0.604296875" cx="19" cy="19.627451" rx="19" ry="19.627451"></ellipse>
                        <g id="play-button-(2)" transform="translate(7.600000, 7.850980)" fill="#FFFFFF" opacity="0.803236607">
                            <path d="M15.9693061,11.3630924 L9.68302041,6.92168067 C9.48759184,6.77267227 8.96644898,6.77267227 8.92457143,7.33505882 L8.92457143,16.2178824 C8.97110204,16.7802689 9.50155102,16.7898824 9.68302041,16.6312605 L15.9693061,12.1898487 C16.1321633,12.0889076 16.3555102,11.6755294 15.9693061,11.3630924 Z M9.89706122,15.270958 L9.89706122,8.28198319 L14.8339592,11.7764706 L9.89706122,15.270958 Z" id="Shape"></path>
                            <path d="M11.4,0 C5.11371429,0 0,5.28258824 0,11.7764706 C0,18.2703529 5.11371429,23.5529412 11.4,23.5529412 C17.6862857,23.5529412 22.8,18.2703529 22.8,11.7764706 C22.8,5.28258824 17.6862857,0 11.4,0 Z M11.4,22.5483361 C5.64881633,22.5483361 0.972489796,17.7175798 0.972489796,11.7764706 C0.972489796,5.83536134 5.64881633,1.00460504 11.4,1.00460504 C17.1511837,1.00460504 21.8275102,5.83536134 21.8275102,11.7764706 C21.8275102,17.7175798 17.1511837,22.5483361 11.4,22.5483361 Z" id="Shape"></path>
                        </g>
                    </g>
                </g>
            </g>
        </g>
    </g>
</svg>