<?xml version="1.0" encoding="UTF-8"?>
<svg width="80px" height="80px" viewBox="0 0 80 80" version="1.1" xmlns="http://www.w3.org/2000/svg" xmlns:xlink="http://www.w3.org/1999/xlink">
    <!-- Generator: Sketch 51.3 (57544) - http://www.bohemiancoding.com/sketch -->
    <title>ic_paly</title>
    <desc>Created with Sketch.</desc>
    <defs></defs>
    <g id="Symbols" stroke="none" stroke-width="1" fill="none" fill-rule="evenodd">
        <g id="ic_paly" fill-rule="nonzero">
            <g>
                <circle id="Oval-2" fill="#243249" opacity="0.604296875" cx="40" cy="40" r="40"></circle>
                <g id="play-button-(2)" transform="translate(16.000000, 16.000000)" fill="#FFFFFF" opacity="0.803236607">
                    <path d="M33.6195918,23.157551 L20.3853061,14.1061224 C19.9738776,13.802449 18.8767347,13.802449 18.7885714,14.9485714 L18.7885714,33.0514286 C18.8865306,34.197551 20.0032653,34.2171429 20.3853061,33.8938776 L33.6195918,24.842449 C33.962449,24.6367347 34.4326531,23.7942857 33.6195918,23.157551 Z M20.8359184,31.1216327 L20.8359184,16.8783673 L31.2293878,24 L20.8359184,31.1216327 Z" id="Shape"></path>
                    <path d="M24,0 C10.7657143,0 0,10.7657143 0,24 C0,37.2342857 10.7657143,48 24,48 C37.2342857,48 48,37.2342857 48,24 C48,10.7657143 37.2342857,0 24,0 Z M24,45.9526531 C11.8922449,45.9526531 2.04734694,36.1077551 2.04734694,24 C2.04734694,11.8922449 11.8922449,2.04734694 24,2.04734694 C36.1077551,2.04734694 45.9526531,11.8922449 45.9526531,24 C45.9526531,36.1077551 36.1077551,45.9526531 24,45.9526531 Z" id="Shape"></path>
                </g>
            </g>
        </g>
    </g>
</svg>