<svg width="31" height="40" xmlns="http://www.w3.org/2000/svg"><defs><linearGradient x1="50%" y1="0%" x2="50%" y2="100%" id="a"><stop stop-color="#4A6180" offset="0%"/><stop stop-color="#243249" offset="100%"/></linearGradient></defs><g transform="translate(-405 -1154)" fill="url(#a)" opacity=".8"><path d="M433.376 1156.865a.651.651 0 0 0-.132.013c-4.298.89-8.77.089-12.504-2.24l-.87-.54a.654.654 0 0 0-.69 0l-.87.54a17.076 17.076 0 0 1-12.504 2.238.66.66 0 0 0-.792.655v20.494a14.948 14.948 0 0 0 2.008 7.493 14.174 14.174 0 0 0 6.544 5.9l5.695 2.524c.168.074.36.074.528 0l5.697-2.525c.32-.142.636-.296.943-.46a.67.67 0 0 0 .274-.902.656.656 0 0 0-.892-.277c-.279.15-.564.289-.854.418l-5.432 2.407-5.43-2.405a12.862 12.862 0 0 1-5.936-5.355 13.6 13.6 0 0 1-1.825-6.821v-19.694a18.391 18.391 0 0 0 12.663-2.556l.528-.326.528.326a18.38 18.38 0 0 0 12.664 2.556v19.694c0 .368.295.666.66.666a.663.663 0 0 0 .659-.666v-20.49a.663.663 0 0 0-.66-.667z"/><path d="M419.477 1159.005a.656.656 0 0 0-.941-.249 14.313 14.313 0 0 1-10.092 1.728.66.66 0 0 0-.791.654v15.926a11.386 11.386 0 0 0 1.656 5.911 11.489 11.489 0 0 0 5.377 4.641.657.657 0 0 0 .863-.357.67.67 0 0 0-.353-.873 10.17 10.17 0 0 1-4.762-4.108 10.047 10.047 0 0 1-1.462-5.214v-15.137c3.538.52 7.146-.193 10.23-2.021a.67.67 0 0 0 .275-.901zm16.279 28.524a.654.654 0 0 0-.863-.003l-3.154 3.188a1.161 1.161 0 0 0-.674 0l-5.792-5.854a.655.655 0 0 0-.933.016.672.672 0 0 0 0 .926l5.792 5.855c-.196.7.208 1.427.9 1.625a1.326 1.326 0 0 0 1.685-1.284 1.322 1.322 0 0 0-.05-.34l3.154-3.189a.672.672 0 0 0-.065-.94z"/><path d="M429.885 1168.86l-2.638-2.667a.655.655 0 0 0-.933 0l-8.108 8.195-2.172-2.195a.655.655 0 0 0-.933 0l-2.638 2.667a.672.672 0 0 0 0 .942l5.277 5.334a.656.656 0 0 0 .932 0l11.213-11.334a.672.672 0 0 0 0-.942zm-11.679 10.862l-4.341-4.39 1.703-1.725 2.176 2.195c.258.26.675.26.933 0l8.103-8.195 1.709 1.724-10.283 10.39z"/></g></svg>