<svg width="24" height="30" xmlns="http://www.w3.org/2000/svg"><defs><linearGradient x1="50%" y1="0%" x2="50%" y2="100%" id="a"><stop stop-color="#4A6180" offset="0%"/><stop stop-color="#243249" offset="100%"/></linearGradient></defs><g transform="translate(-50 -1009)" fill="url(#a)" opacity=".8"><path d="M71.282 1011.149a.489.489 0 0 0-.099.01 12.807 12.807 0 0 1-9.378-1.68l-.652-.405a.49.49 0 0 0-.518 0l-.652.405a12.807 12.807 0 0 1-9.379 1.678.495.495 0 0 0-.593.491v15.37a11.207 11.207 0 0 0 1.506 5.62 10.63 10.63 0 0 0 4.907 4.425l4.272 1.893a.49.49 0 0 0 .396 0l4.273-1.893c.24-.107.477-.222.707-.346a.503.503 0 0 0 .205-.676.492.492 0 0 0-.669-.207 9.962 9.962 0 0 1-.64.313l-4.074 1.805-4.072-1.804a9.647 9.647 0 0 1-4.453-4.016 10.2 10.2 0 0 1-1.369-5.116v-14.77a13.794 13.794 0 0 0 9.498-1.917l.396-.244.396.244a13.785 13.785 0 0 0 9.497 1.917v14.77c0 .276.222.5.495.5a.497.497 0 0 0 .495-.5v-15.368c0-.276-.222-.5-.495-.5z"/><path d="M60.858 1012.754a.492.492 0 0 0-.706-.187 10.735 10.735 0 0 1-7.569 1.296.495.495 0 0 0-.593.49v11.945c0 1.566.43 3.1 1.242 4.433a8.617 8.617 0 0 0 4.032 3.481.493.493 0 0 0 .648-.268.502.502 0 0 0-.265-.654 7.628 7.628 0 0 1-3.572-3.082 7.536 7.536 0 0 1-1.096-3.91v-11.353c2.654.39 5.36-.144 7.672-1.516a.503.503 0 0 0 .207-.675zm12.209 21.392a.49.49 0 0 0-.647-.001l-2.366 2.39a.87.87 0 0 0-.505 0l-4.344-4.39a.491.491 0 0 0-.7.012.504.504 0 0 0 0 .695l4.344 4.39a.989.989 0 0 0 .95 1.256.995.995 0 0 0 .951-1.255l2.366-2.391a.504.504 0 0 0-.049-.706z"/><path d="M68.664 1020.145l-1.979-2a.491.491 0 0 0-.7 0l-6.08 6.146-1.63-1.646a.491.491 0 0 0-.699 0l-1.979 2a.504.504 0 0 0 0 .707l3.958 4a.492.492 0 0 0 .7 0l8.409-8.5a.504.504 0 0 0 0-.707zm-8.76 8.146l-3.255-3.293 1.277-1.293 1.632 1.647a.491.491 0 0 0 .7 0l6.077-6.147 1.282 1.293-7.713 7.793z"/></g></svg>