<svg width="38" height="40" xmlns="http://www.w3.org/2000/svg"><defs><linearGradient x1="50%" y1="0%" x2="50%" y2="100%" id="a"><stop stop-color="#4A6180" offset="0%"/><stop stop-color="#243249" offset="100%"/></linearGradient></defs><path d="M1016.649 1166.023h-2.213c2.082-4 .567-8.951-3.385-11.059a8.015 8.015 0 0 0-9.488 1.452l-.688.696-.688-.696a8.015 8.015 0 0 0-11.432-.039c-2.529 2.543-3.114 6.463-1.44 9.648h-2.213a.661.661 0 0 0-.657.666c0 .367.294.665.657.665v-.002h3.082c.175.22.361.432.558.633l10.574 10.69a2.19 2.19 0 0 0 3.119 0l10.573-10.69c.197-.201.384-.413.559-.633h3.082a.661.661 0 0 0 .657-.665.661.661 0 0 0-.657-.666zm-15.143 11.715a.886.886 0 0 1-1.261 0l-10.27-10.384h5.642c.25.002.48-.14.592-.365l1.261-2.552 2.128 6.454c.09.27.34.454.623.454h.02a.66.66 0 0 0 .615-.493l1.936-7.34.73 3.327c.079.359.43.585.784.506a.656.656 0 0 0 .384-.251l1.334-1.796.835 1.691a.656.656 0 0 0 .592.368h4.328l-10.273 10.38zm11.401-11.713h-5.053l-1.13-2.29a.654.654 0 0 0-1.117-.102l-1.117 1.502-1.004-4.57a.66.66 0 0 0-.629-.52.668.668 0 0 0-.648.493l-2.064 7.825-1.936-5.87a.655.655 0 0 0-1.211-.087l-1.79 3.62h-6.365a6.904 6.904 0 0 1-.192-7.353c1.928-3.249 6.094-4.3 9.303-2.348a6.79 6.79 0 0 1 1.304 1.031l1.153 1.165a.65.65 0 0 0 .929 0l1.153-1.165a6.715 6.715 0 0 1 9.578-.015 6.919 6.919 0 0 1 .836 8.684zm-19.055 17.201l-2.835-1.64v-2.936c.015-1.452-1.135-2.642-2.57-2.657a2.57 2.57 0 0 0-.716.093v-2.752c0-1.47-1.177-2.661-2.63-2.661-1.451 0-2.628 1.191-2.628 2.661v5.505c0 4.257 2.104 8.232 5.605 10.59l2.282 1.538v2.3c0 .368.294.666.657.666a.661.661 0 0 0 .657-.665v-2.657c0-.222-.11-.43-.292-.553l-2.574-1.735c-3.136-2.112-5.02-5.671-5.02-9.484v-5.505c0-.735.588-1.33 1.314-1.33.726 0 1.314.595 1.314 1.33v3.577a2.652 2.652 0 0 0-.657 1.74v2.66c0 .368.294.666.657.666a.661.661 0 0 0 .658-.665v-2.662c0-.734.588-1.33 1.314-1.33.726 0 1.314.596 1.314 1.33v3.323c0 .238.125.458.329.577l3.167 1.83a4.86 4.86 0 0 1 2.42 4.21v4.678c0 .367.294.665.657.665a.661.661 0 0 0 .657-.665v-4.678a6.187 6.187 0 0 0-3.08-5.364zm22.797-12.55c-1.45 0-2.627 1.19-2.63 2.658v2.752c-1.383-.384-2.813.44-3.193 1.84-.064.236-.095.48-.092.724v2.937l-2.836 1.639a6.187 6.187 0 0 0-3.08 5.364v4.678c0 .367.295.665.658.665a.661.661 0 0 0 .657-.665v-4.678c0-1.74.923-3.348 2.417-4.21l3.167-1.83a.667.667 0 0 0 .329-.577v-3.323c0-.734.588-1.33 1.314-1.33.726 0 1.314.596 1.314 1.33v2.662c0 .367.295.665.658.665a.661.661 0 0 0 .657-.665v-2.662a2.652 2.652 0 0 0-.657-1.74v-3.576c0-.735.588-1.33 1.314-1.33.726 0 1.315.595 1.315 1.33v5.505c-.002 3.813-1.886 7.372-5.021 9.484l-2.574 1.735a.668.668 0 0 0-.292.553v2.657c0 .367.294.665.657.665a.661.661 0 0 0 .657-.665v-2.302l2.282-1.538c3.501-2.358 5.606-6.332 5.608-10.589v-5.505c-.002-1.468-1.179-2.658-2.63-2.658z" transform="translate(-982 -1154)" fill="url(#a)"/></svg>