<svg width="28" height="30" xmlns="http://www.w3.org/2000/svg"><defs><linearGradient x1="50%" y1="0%" x2="50%" y2="100%" id="a"><stop stop-color="#4A6180" offset="0%"/><stop stop-color="#243249" offset="100%"/></linearGradient></defs><path d="M74.638 1136.018h-1.66c1.562-3 .425-6.714-2.539-8.295a6.011 6.011 0 0 0-7.115 1.089l-.516.522-.516-.522a6.011 6.011 0 0 0-8.574-.029 6.193 6.193 0 0 0-1.08 7.236h-1.66a.496.496 0 0 0-.493.499c0 .275.22.499.493.499v-.002h2.311a6.2 6.2 0 0 0 .419.475l7.93 8.018a1.644 1.644 0 0 0 2.34 0l7.93-8.018a6.2 6.2 0 0 0 .419-.475h2.31a.496.496 0 0 0 .494-.499.496.496 0 0 0-.493-.498zm-11.357 8.785a.664.664 0 0 1-.946 0l-7.703-7.788h4.232a.492.492 0 0 0 .444-.273l.946-1.914 1.596 4.84c.067.203.255.34.467.34h.015a.494.494 0 0 0 .461-.369l1.453-5.505.547 2.495a.493.493 0 0 0 .876.191l1-1.347.627 1.269a.49.49 0 0 0 .443.275h3.247l-7.705 7.786zm8.55-8.784h-3.79l-.846-1.718a.49.49 0 0 0-.838-.076l-.838 1.126-.753-3.427a.494.494 0 0 0-.472-.39.5.5 0 0 0-.486.37l-1.548 5.868-1.452-4.402a.492.492 0 0 0-.908-.066l-1.343 2.715h-4.773a5.178 5.178 0 0 1-.145-5.514c1.447-2.437 4.57-3.225 6.978-1.761.356.216.684.476.978.773l.864.874a.489.489 0 0 0 .697 0l.865-.874a5.036 5.036 0 0 1 7.183-.011 5.189 5.189 0 0 1 .628 6.513zM57.54 1148.92l-2.126-1.23v-2.202a1.961 1.961 0 0 0-1.928-1.994 1.927 1.927 0 0 0-.537.07v-2.063c0-1.103-.882-1.996-1.971-1.996-1.09 0-1.972.893-1.972 1.996v4.129a9.57 9.57 0 0 0 4.204 7.941l1.711 1.154v1.726c0 .276.22.499.493.499a.496.496 0 0 0 .493-.499v-1.993a.5.5 0 0 0-.22-.415l-1.93-1.3a8.571 8.571 0 0 1-3.765-7.113v-4.13c0-.55.441-.997.986-.997.544 0 .986.446.986.998v2.682c-.316.36-.492.824-.493 1.305v1.996c0 .275.22.499.493.499a.496.496 0 0 0 .492-.5v-1.995c0-.551.442-.998.986-.998.545 0 .986.447.986.998v2.492a.5.5 0 0 0 .247.432l2.375 1.372a3.645 3.645 0 0 1 1.814 3.159v3.508c0 .276.221.499.493.499a.496.496 0 0 0 .493-.499v-3.508a4.64 4.64 0 0 0-2.31-4.024zm17.098-9.413c-1.088 0-1.97.892-1.972 1.994v2.064a1.946 1.946 0 0 0-2.395 1.38c-.048.176-.071.36-.07.543v2.202l-2.126 1.23a4.64 4.64 0 0 0-2.31 4.023v3.508c0 .276.221.499.493.499a.496.496 0 0 0 .493-.499v-3.508c0-1.306.693-2.511 1.813-3.159l2.375-1.372a.5.5 0 0 0 .246-.432v-2.492c0-.551.442-.998.986-.998.545 0 .986.447.986.998v1.996c0 .275.22.499.493.499a.496.496 0 0 0 .493-.5v-1.995a1.989 1.989 0 0 0-.493-1.305v-2.682c0-.552.441-.998.986-.998.544 0 .986.446.986.998v4.129a8.575 8.575 0 0 1-3.766 7.112l-1.93 1.301a.5.5 0 0 0-.22.415v1.993c0 .276.221.499.494.499a.496.496 0 0 0 .493-.499v-1.726l1.71-1.154a9.574 9.574 0 0 0 4.207-7.941v-4.13a1.984 1.984 0 0 0-1.972-1.993z" transform="translate(-49 -1127)" fill="url(#a)"/></svg>