<svg width="80" height="80" xmlns="http://www.w3.org/2000/svg"><g transform="translate(0 .194)" fill="none"><ellipse fill="#243249" opacity=".604" cx="40" cy="39.81" rx="40" ry="39.81"/><g fill="#FFF" opacity=".803"><path d="M49.62 38.972l-13.235-9.009c-.411-.302-1.508-.302-1.596.839v18.017a1.016 1.016 0 0 0 1.596.838L49.62 40.65c.342-.205.813-1.043 0-1.677zm-12.784 7.926V32.723l10.393 7.087-10.393 7.088z"/><path d="M40 15.924c-13.234 0-24 10.715-24 23.886 0 13.172 10.766 23.887 24 23.887S64 52.982 64 39.81c0-13.171-10.766-23.886-24-23.886zm0 45.735c-12.108 0-21.953-9.798-21.953-21.849 0-12.05 9.845-21.848 21.953-21.848 12.108 0 21.953 9.798 21.953 21.848 0 12.05-9.845 21.849-21.953 21.849z"/></g></g></svg>