<svg width="60" height="60" xmlns="http://www.w3.org/2000/svg"><g fill="none"><circle fill="#243249" opacity=".604" cx="30" cy="30" r="30"/><g fill="#FFF" opacity=".803"><path d="M37.215 29.368l-9.926-6.788c-.309-.228-1.131-.228-1.198.631V36.79a.762.762 0 0 0 1.198.631l9.926-6.788c.257-.154.61-.786 0-1.264zm-9.588 5.973V24.66L35.422 30l-7.795 5.341z"/><path d="M30 12c-9.926 0-18 8.074-18 18s8.074 18 18 18 18-8.074 18-18-8.074-18-18-18zm0 34.464c-9.08 0-16.464-7.383-16.464-16.464 0-9.08 7.383-16.464 16.464-16.464 9.08 0 16.464 7.383 16.464 16.464 0 9.08-7.383 16.464-16.464 16.464z"/></g></g></svg>