<svg width="44" height="40" xmlns="http://www.w3.org/2000/svg"><defs><linearGradient x1="50%" y1="0%" x2="50%" y2="100%" id="a"><stop stop-color="#4A6180" offset="0%"/><stop stop-color="#243249" offset="100%"/></linearGradient></defs><g transform="translate(-1271 -1154)" fill="url(#a)"><path d="M1308.557 1155.045a.708.708 0 0 0-.144.014 5.81 5.81 0 0 1-4.196-.74l-.315-.193a.643.643 0 0 0-.061-.027.705.705 0 0 0-.62 0 .653.653 0 0 0-.062.027l-.315.193a5.807 5.807 0 0 1-4.202.74.719.719 0 0 0-.862.713v7.324c0 1.031.275 2.044.797 2.93a5.598 5.598 0 0 0 2.601 2.307l2.068.902c.18.078.384.078.565 0l2.068-.902a5.599 5.599 0 0 0 2.598-2.307 5.774 5.774 0 0 0 .798-2.93v-7.324a.723.723 0 0 0-.718-.727zm-5.748 12.416l-1.065-.465a4.165 4.165 0 0 1-1.933-1.716 4.307 4.307 0 0 1-.594-2.182v-6.49a7.202 7.202 0 0 0 3.592-.638v11.49zm5.03-4.365a4.303 4.303 0 0 1-.595 2.181 4.165 4.165 0 0 1-1.932 1.717l-1.066.467v-11.491a7.209 7.209 0 0 0 3.592.638v6.488zm4.914 5.18a.716.716 0 0 0-.934-.405.73.73 0 0 0-.383.987 17.529 17.529 0 0 1 1.432 6.982c0 .401.321.727.718.727a.723.723 0 0 0 .719-.727 18.971 18.971 0 0 0-1.552-7.564zm-19.284-11.346c-5.46 0-10.647 2.418-14.194 6.619a.733.733 0 0 0 .079 1.025.712.712 0 0 0 1.013-.08 17.142 17.142 0 0 1 13.102-6.109.723.723 0 0 0 .718-.727.723.723 0 0 0-.718-.727z"/><path d="M1314.366 1181.956l-4.781-4.843a4.357 4.357 0 0 0-.885-.685 3.667 3.667 0 0 0 .464-5.121 3.562 3.562 0 0 0-5.06-.47 3.667 3.667 0 0 0 .118 5.686c-.258.166-.497.36-.713.577l-1.306 1.255a1.14 1.14 0 0 1-1.621-.032l-4.784-4.843a4.288 4.288 0 0 0-.666-.55c1.986-1.33 2.53-4.037 1.216-6.047a4.279 4.279 0 0 0-5.974-1.23c-1.985 1.33-2.53 4.037-1.216 6.047.32.489.733.907 1.216 1.23-.24.16-.462.345-.665.55l-3.661 3.71-3.225-2.345a4.315 4.315 0 0 0-.6-.482c.292-.202.559-.439.794-.705h1.83a.723.723 0 0 0 .72-.727.734.734 0 0 0-.077-.326l-1.599-3.238a4.278 4.278 0 0 0-.552-1.127.708.708 0 0 0-.16-.207 4.243 4.243 0 0 0-6.007-.718c-.287.23-.545.495-.765.79a.86.86 0 0 0-.078.102 4.365 4.365 0 0 0-.575 1.155l-1.602 3.242a.731.731 0 0 0 .32.976c.098.05.207.077.317.078h1.836c.234.264.5.499.79.698-.23.156-.446.334-.642.532l-4.198 4.297a2.29 2.29 0 0 0 0 3.21c.42.426.99.665 1.585.665a2.246 2.246 0 0 0 1.454-.542l-1.52 6.182a.728.728 0 0 0 .695.908h1.437v2.182c0 1.202.96 2.177 2.148 2.178.534 0 1.049-.2 1.444-.563.88.806 2.24.738 3.036-.153.359-.4.557-.922.556-1.462v-2.182h1.437a.723.723 0 0 0 .698-.903l-1.772-7.217.991.519c.427.226.904.34 1.386.327a.777.777 0 0 0 .139-.003c.031 0 .064.005.082.005a2.244 2.244 0 0 0 1.587-.666l1.2-1.215v11.335c-.003 1.2.955 2.177 2.141 2.18.537.002 1.055-.2 1.452-.565.88.806 2.24.738 3.036-.153.358-.4.556-.922.556-1.462v-11.335l2.299 2.327a3.764 3.764 0 0 0 4.167.88v8.128c-.003 1.2.955 2.177 2.141 2.18.537.002 1.054-.2 1.451-.565.88.806 2.24.738 3.037-.153.358-.4.556-.922.556-1.462v-7.77l1.2 1.146a2.224 2.224 0 0 0 3.172 0c.42-.426.657-1.003.657-1.605a2.269 2.269 0 0 0-.657-1.605zm-7.965-10.48c1.19 0 2.156.977 2.156 2.182s-.965 2.182-2.156 2.182c-1.19 0-2.155-.977-2.155-2.182s.965-2.182 2.155-2.182zm-16.524-2.182c0-1.606 1.286-2.909 2.874-2.909 1.587 0 2.873 1.303 2.873 2.91 0 1.606-1.286 2.908-2.873 2.908-1.588 0-2.874-1.302-2.874-2.909zm-12.915 2.91h-1.006l1.103-2.238a.782.782 0 0 0 .042-.102c.09-.29.223-.563.396-.81l.04-.049a2.82 2.82 0 0 1 4.569 0 .754.754 0 0 0 .037.047c.174.248.309.522.398.812a.782.782 0 0 0 .042.102l1.105 2.237h-1.006a.716.716 0 0 0-.575.291 2.83 2.83 0 0 1-2.073 1.138 4.03 4.03 0 0 0-.44 0 2.832 2.832 0 0 1-2.058-1.138.716.716 0 0 0-.574-.29zm36.39 11.933a.8.8 0 0 1-1.154-.014l-2.427-2.32a.712.712 0 0 0-1.016.025.732.732 0 0 0-.198.508v9.454a.723.723 0 0 1-.719.727.723.723 0 0 1-.718-.727v-5.441a.723.723 0 0 0-.719-.728.723.723 0 0 0-.718.728v5.441a.723.723 0 0 1-.719.727.723.723 0 0 1-.718-.727v-9.454a.723.723 0 0 0-.718-.728c-.184 0-.36.07-.493.198a2.344 2.344 0 0 1-3.377-.057l-3.52-3.563a.712.712 0 0 0-1.017-.01.732.732 0 0 0-.215.523v13.091a.723.723 0 0 1-.719.727.723.723 0 0 1-.718-.727v-8.727a.723.723 0 0 0-.719-.727.723.723 0 0 0-.718.727v8.727a.723.723 0 0 1-.718.727.723.723 0 0 1-.719-.727v-13.09a.723.723 0 0 0-.719-.728.714.714 0 0 0-.507.213l-2.425 2.455a.803.803 0 0 1-.52.24c-.019 0-.072-.008-.094-.01h-.055a.663.663 0 0 0-.173.011 1.45 1.45 0 0 1-.673-.166l-2.402-1.257a.714.714 0 0 0-.969.312.735.735 0 0 0-.059.509l1.934 7.875h-1.241a.723.723 0 0 0-.718.727v2.91a.723.723 0 0 1-.719.726.723.723 0 0 1-.718-.727v-2.909a.723.723 0 0 0-.719-.727.723.723 0 0 0-.718.727v2.91a.723.723 0 0 1-.719.726.723.723 0 0 1-.718-.727v-2.909a.723.723 0 0 0-.719-.727h-1.233l1.934-7.878a.728.728 0 0 0-.525-.88.713.713 0 0 0-.688.198l-1.702 1.773a.799.799 0 0 1-1.139.006.82.82 0 0 1-.239-.58.816.816 0 0 1 .239-.582l4.201-4.299a2.83 2.83 0 0 1 1.707-.818c.107.008.216.018.322.018.106 0 .216-.01.322-.018a2.83 2.83 0 0 1 1.707.818.695.695 0 0 0 .09.077l3.765 2.738a.712.712 0 0 0 .927-.077l4.095-4.146a2.85 2.85 0 0 1 4.058 0l4.791 4.858a2.553 2.553 0 0 0 3.615.048l1.319-1.268a2.912 2.912 0 0 1 4.058 0l4.783 4.842a.823.823 0 0 1 0 1.153z"/></g></svg>