<svg width="33" height="30" xmlns="http://www.w3.org/2000/svg"><defs><linearGradient x1="50%" y1="0%" x2="50%" y2="100%" id="a"><stop stop-color="#4A6180" offset="0%"/><stop stop-color="#243249" offset="100%"/></linearGradient></defs><g transform="translate(-51 -1188)" fill="url(#a)"><path d="M78.48 1188.783a.531.531 0 0 0-.108.012 4.358 4.358 0 0 1-3.147-.556l-.237-.144a.482.482 0 0 0-.046-.02.529.529 0 0 0-.466 0 .49.49 0 0 0-.045.02l-.237.144a4.355 4.355 0 0 1-3.15.556.539.539 0 0 0-.647.534v5.493c0 .774.206 1.533.598 2.197a4.199 4.199 0 0 0 1.95 1.73l1.551.677a.53.53 0 0 0 .424 0l1.551-.676a4.199 4.199 0 0 0 1.949-1.73 4.33 4.33 0 0 0 .598-2.198v-5.493a.542.542 0 0 0-.538-.546zm-4.311 9.313l-.8-.349a3.124 3.124 0 0 1-1.45-1.287 3.23 3.23 0 0 1-.445-1.637v-4.867a5.404 5.404 0 0 0 2.695-.479v8.619zm3.772-3.274a3.23 3.23 0 0 1-.446 1.636 3.124 3.124 0 0 1-1.45 1.287l-.799.351v-8.619c.844.388 1.77.553 2.695.479v4.866zm3.685 3.885a.537.537 0 0 0-.7-.304.548.548 0 0 0-.287.74 13.146 13.146 0 0 1 1.073 5.237c0 .3.242.545.54.545a.542.542 0 0 0 .538-.545 14.228 14.228 0 0 0-1.164-5.673zm-14.462-8.509a13.93 13.93 0 0 0-10.646 4.964.55.55 0 0 0 .06.769.534.534 0 0 0 .759-.06 12.857 12.857 0 0 1 9.827-4.582.542.542 0 0 0 .538-.546.542.542 0 0 0-.538-.545z"/><path d="M82.837 1208.967l-3.587-3.632a3.267 3.267 0 0 0-.663-.514 2.75 2.75 0 0 0 .347-3.84 2.672 2.672 0 0 0-3.794-.353 2.75 2.75 0 0 0 .088 4.264 3.2 3.2 0 0 0-.535.433l-.98.941a.855.855 0 0 1-1.215-.024l-3.588-3.632a3.216 3.216 0 0 0-.5-.412c1.49-.998 1.898-3.028.913-4.535a3.21 3.21 0 0 0-4.48-.923c-1.49.997-1.898 3.028-.913 4.535.24.367.55.68.912.923-.18.12-.346.258-.499.412l-2.745 2.782-2.42-1.758a3.236 3.236 0 0 0-.45-.362c.22-.151.42-.329.597-.529h1.372a.542.542 0 0 0 .483-.789l-1.2-2.429a3.208 3.208 0 0 0-.414-.845.531.531 0 0 0-.12-.155 3.182 3.182 0 0 0-5.08.054.646.646 0 0 0-.057.076 3.277 3.277 0 0 0-.431.866l-1.202 2.432a.549.549 0 0 0 .24.732.534.534 0 0 0 .237.058h1.377c.176.199.375.374.593.524a3.23 3.23 0 0 0-.482.399l-3.148 3.223a1.717 1.717 0 0 0 0 2.407 1.668 1.668 0 0 0 2.279.093l-1.14 4.636a.546.546 0 0 0 .521.681h1.078v1.637c0 .9.72 1.632 1.611 1.633.4 0 .787-.15 1.083-.422a1.6 1.6 0 0 0 2.278-.115c.268-.3.417-.691.417-1.096v-1.637h1.077a.542.542 0 0 0 .524-.677l-1.33-5.413.744.39a2.104 2.104 0 0 0 1.143.242c.024 0 .049.004.062.004.446-.002.874-.18 1.19-.5l.9-.91v8.5a1.62 1.62 0 0 0 1.606 1.636 1.6 1.6 0 0 0 1.089-.424 1.6 1.6 0 0 0 2.277-.115c.269-.3.417-.691.417-1.096v-8.502l1.724 1.746a2.823 2.823 0 0 0 3.126.66v6.096a1.62 1.62 0 0 0 1.605 1.635 1.6 1.6 0 0 0 1.089-.424 1.6 1.6 0 0 0 2.277-.115c.269-.3.417-.691.417-1.096v-5.827l.9.859a1.668 1.668 0 0 0 2.38-.001 1.714 1.714 0 0 0 0-2.407zm-5.974-7.86c.893 0 1.616.733 1.616 1.636 0 .904-.723 1.637-1.616 1.637a1.627 1.627 0 0 1-1.617-1.637c0-.903.724-1.636 1.617-1.636zm-12.394-1.636c0-1.205.965-2.182 2.156-2.182 1.19 0 2.155.977 2.155 2.182s-.965 2.181-2.155 2.181-2.156-.976-2.156-2.181zm-9.686 2.181h-.755l.828-1.677a.587.587 0 0 0 .031-.077c.068-.217.168-.422.298-.608a.35.35 0 0 0 .029-.036 2.115 2.115 0 0 1 3.427 0 2.174 2.174 0 0 1 .327.644.721.721 0 0 0 .03.077l.83 1.677h-.755a.53.53 0 0 0-.43.219c-.372.499-.94.81-1.556.853a3.023 3.023 0 0 0-.33 0 2.124 2.124 0 0 1-1.543-.853.537.537 0 0 0-.431-.219zm27.292 8.951a.6.6 0 0 1-.865-.01l-1.82-1.74a.534.534 0 0 0-.762.018.55.55 0 0 0-.149.38v7.092a.542.542 0 0 1-.539.545.542.542 0 0 1-.538-.545v-4.081a.542.542 0 0 0-.54-.546.542.542 0 0 0-.538.546v4.08a.542.542 0 0 1-.539.546.542.542 0 0 1-.539-.545v-7.091a.542.542 0 0 0-.538-.546.535.535 0 0 0-.37.149 1.758 1.758 0 0 1-2.533-.043l-2.64-2.673a.534.534 0 0 0-.762-.007.55.55 0 0 0-.162.392v9.819a.542.542 0 0 1-.539.545.542.542 0 0 1-.539-.545v-6.546a.542.542 0 0 0-.538-.545.542.542 0 0 0-.54.545v6.546a.542.542 0 0 1-.538.545.542.542 0 0 1-.539-.545v-9.819a.542.542 0 0 0-.539-.545.535.535 0 0 0-.38.16l-1.82 1.84a.603.603 0 0 1-.39.181c-.014 0-.053-.006-.07-.007h-.041a.498.498 0 0 0-.13.008c-.175 0-.349-.043-.505-.125l-1.801-.943a.536.536 0 0 0-.726.234.552.552 0 0 0-.045.382l1.45 5.906h-.93a.542.542 0 0 0-.54.546v2.182a.542.542 0 0 1-.538.545.542.542 0 0 1-.539-.545v-2.182a.542.542 0 0 0-.539-.546.542.542 0 0 0-.539.546v2.182a.542.542 0 0 1-.538.545.542.542 0 0 1-.54-.545v-2.182a.542.542 0 0 0-.538-.546h-.925l1.45-5.908a.546.546 0 0 0-.393-.66.535.535 0 0 0-.516.149l-1.277 1.33a.599.599 0 0 1-.854.004.615.615 0 0 1-.18-.435c0-.164.064-.322.18-.437l3.15-3.224a2.122 2.122 0 0 1 1.281-.613c.08.006.162.013.242.013.08 0 .161-.007.241-.013.483.05.935.267 1.28.613.02.021.043.04.067.058l2.825 2.053a.534.534 0 0 0 .695-.058l3.071-3.109a2.137 2.137 0 0 1 3.044 0l3.593 3.644c.742.76 1.95.775 2.71.035l.99-.95a2.184 2.184 0 0 1 3.044 0l3.587 3.631a.617.617 0 0 1 0 .865z"/></g></svg>