<svg width="27" height="40" xmlns="http://www.w3.org/2000/svg"><defs><linearGradient x1="50%" y1="0%" x2="50%" y2="100%" id="a"><stop stop-color="#4A6180" offset="0%"/><stop stop-color="#243249" offset="100%"/></linearGradient></defs><g transform="translate(-694 -1154)" fill="url(#a)"><path d="M716.352 1178.319a.661.661 0 0 0-.657.665v14.28a.66.66 0 0 0 .657.665.661.661 0 0 0 .657-.665v-14.28a.661.661 0 0 0-.657-.665zm-3.521-14.797a.651.651 0 0 0-.882 0l-2.439 2.466h-2.38a.661.661 0 0 0-.658.665c0 .367.294.665.657.665h4.944a.661.661 0 0 0 .657-.665.661.661 0 0 0-.657-.665h-.704l1.507-1.526a.671.671 0 0 0-.045-.94z"/><path d="M720.124 1175.568a10.795 10.795 0 0 0-4.002-5.004l-2.06-1.383c3.565-3.13 3.947-8.593.854-12.2a8.472 8.472 0 0 0-12.053-.864c-3.564 3.13-3.946 8.593-.853 12.2a8.575 8.575 0 0 0 1.816 1.596l-.895.642a29.05 29.05 0 0 0-8.549 9.716c-.246.453-.375.96-.376 1.476v.489a3.066 3.066 0 0 0 .874 2.155 2.962 2.962 0 0 0 2.109.89h2.932v7.983a.66.66 0 0 0 .657.665.661.661 0 0 0 .658-.665v-7.983h5.923c1.437.004 2.605-1.17 2.61-2.624 0-.141-.01-.282-.033-.421l.926-1.239a31.07 31.07 0 0 0 4.79-9.28 9.479 9.479 0 0 1 3.456 4.35 10.27 10.27 0 0 1 .73 3.825v13.372a.66.66 0 0 0 .657.665.661.661 0 0 0 .657-.665v-13.372a11.588 11.588 0 0 0-.828-4.324zm-23.135 8.382a1.646 1.646 0 0 1-1.172-.495 1.732 1.732 0 0 1-.496-1.22v-.488c0-.292.072-.579.21-.835a27.853 27.853 0 0 1 4.553-6.168l.609 5.215h-2.086a.661.661 0 0 0-.657.665c0 .367.294.665.657.665h2.234l.31 2.661h-4.162zm14.434-27.962l-4.397 1.873-2.555-1.293a7.112 7.112 0 0 1 6.952-.58zm-8.067 1.503l2.075 1.05-3.74 1.592a7.347 7.347 0 0 1 1.665-2.642zm-2.055 4.255l11.523-4.911a7.3 7.3 0 0 1 1.082 1.02l-12.44 6.596a6.986 6.986 0 0 1-.165-2.705zm.94 4.617a7.333 7.333 0 0 1-.333-.642l12.776-6.777c2.024 3.478.88 7.958-2.557 10.007-3.436 2.05-7.863.89-9.887-2.588zm.239 17.587l-1.204-10.357c.487-.442.993-.858 1.509-1.264l2.87 11.621h-3.175zm5.607-.388c-.245.25-.578.39-.925.388h-.153l-.657-2.66h.793c.361.001.706.153.954.418.492.52.486 1.341-.012 1.854zm5.987-11.836a29.76 29.76 0 0 1-4.458 8.469l-.505.676c-.03-.034-.052-.073-.084-.106a2.62 2.62 0 0 0-1.882-.806h-1.121l-2.094-8.489 1.191-.854a8.403 8.403 0 0 0 7.813-.595l1.38.924c-.045.166-.118.41-.24.78z"/></g></svg>