<svg width="21" height="30" xmlns="http://www.w3.org/2000/svg"><defs><linearGradient x1="50%" y1="0%" x2="50%" y2="100%" id="a"><stop stop-color="#4A6180" offset="0%"/><stop stop-color="#243249" offset="100%"/></linearGradient></defs><g transform="translate(-52 -1066)" fill="url(#a)"><path d="M68.764 1084.239a.496.496 0 0 0-.493.499v10.71c0 .276.22.499.493.499a.496.496 0 0 0 .493-.499v-10.71a.496.496 0 0 0-.493-.5zm-2.641-11.097a.488.488 0 0 0-.662 0l-1.828 1.849h-1.786a.496.496 0 0 0-.493.499c0 .275.22.499.493.499h3.708a.496.496 0 0 0 .492-.5.496.496 0 0 0-.492-.498h-.528l1.13-1.144a.503.503 0 0 0-.034-.705z"/><path d="M71.593 1082.176a8.097 8.097 0 0 0-3.002-3.753l-1.544-1.037c2.673-2.348 2.96-6.445.64-9.15a6.354 6.354 0 0 0-9.04-.648c-2.672 2.347-2.959 6.444-.64 9.15.396.462.855.865 1.362 1.197l-.67.481a21.787 21.787 0 0 0-6.412 7.287c-.185.34-.282.72-.282 1.108v.366a2.3 2.3 0 0 0 .655 1.616c.419.426.988.667 1.581.668h2.2v5.987c0 .276.22.499.493.499a.496.496 0 0 0 .493-.499v-5.987h4.442a1.962 1.962 0 0 0 1.933-2.284l.694-.93a23.303 23.303 0 0 0 3.594-6.96 7.11 7.11 0 0 1 2.591 3.263c.364.912.55 1.886.547 2.869v10.03c0 .275.221.498.493.498a.496.496 0 0 0 .493-.499v-10.029a8.691 8.691 0 0 0-.621-3.243zm-17.352 6.287a1.234 1.234 0 0 1-.878-.372 1.3 1.3 0 0 1-.373-.914v-.366c0-.22.055-.435.159-.627a20.89 20.89 0 0 1 3.414-4.626l.457 3.91h-1.565a.496.496 0 0 0-.493.5c0 .275.22.499.493.499h1.676l.232 1.996H54.24zm10.826-20.972l-3.297 1.405-1.917-.97a5.334 5.334 0 0 1 5.214-.435zm-6.05 1.127l1.556.788-2.805 1.194a5.51 5.51 0 0 1 1.249-1.982zm-1.541 3.191l8.642-3.683c.295.226.567.483.811.765l-9.33 4.947a5.24 5.24 0 0 1-.123-2.029zm.704 3.463a5.5 5.5 0 0 1-.249-.48l9.582-5.084c1.518 2.608.66 5.969-1.918 7.506-2.577 1.536-5.897.667-7.415-1.942zm.18 13.19l-.903-7.767c.365-.331.745-.644 1.132-.948l2.152 8.716H58.36zm4.205-.29a.969.969 0 0 1-.694.29h-.114l-.493-1.995h.595a1.007 1.007 0 0 1 .706 1.705zm4.49-8.878a22.32 22.32 0 0 1-3.343 6.352l-.38.507c-.022-.025-.038-.054-.062-.08a1.965 1.965 0 0 0-1.41-.604h-.842l-1.57-6.366.893-.641a6.302 6.302 0 0 0 5.86-.446l1.035.692c-.034.125-.089.309-.18.586z"/></g></svg>